<mxfile host="app.diagrams.net" agent="Mozilla/5.0 (Windows NT 10.0; Win64; x64) AppleWebKit/537.36 (KHTML, like Gecko) Chrome/134.0.0.0 Safari/537.36" version="26.1.2" pages="2">
  <diagram id="C5RBs43oDa-KdzZeNtuy" name="Page-1">
    <mxGraphModel dx="1674" dy="780" grid="1" gridSize="10" guides="1" tooltips="1" connect="1" arrows="1" fold="1" page="1" pageScale="1" pageWidth="827" pageHeight="1169" math="0" shadow="0">
      <root>
        <mxCell id="WIyWlLk6GJQsqaUBKTNV-0" />
        <mxCell id="WIyWlLk6GJQsqaUBKTNV-1" parent="WIyWlLk6GJQsqaUBKTNV-0" />
        <mxCell id="qdGbckYBGcrFoS_aa_Sn-12" value="Estoque" style="swimlane;fontStyle=0;childLayout=stackLayout;horizontal=1;startSize=26;fillColor=none;horizontalStack=0;resizeParent=1;resizeParentMax=0;resizeLast=0;collapsible=1;marginBottom=0;whiteSpace=wrap;html=1;" parent="WIyWlLk6GJQsqaUBKTNV-1" vertex="1">
          <mxGeometry x="240" y="950" width="140" height="156" as="geometry" />
        </mxCell>
        <mxCell id="qdGbckYBGcrFoS_aa_Sn-13" value="+ id: int" style="text;strokeColor=none;fillColor=none;align=left;verticalAlign=top;spacingLeft=4;spacingRight=4;overflow=hidden;rotatable=0;points=[[0,0.5],[1,0.5]];portConstraint=eastwest;whiteSpace=wrap;html=1;" parent="qdGbckYBGcrFoS_aa_Sn-12" vertex="1">
          <mxGeometry y="26" width="140" height="26" as="geometry" />
        </mxCell>
        <mxCell id="qdGbckYBGcrFoS_aa_Sn-14" value="+ produto_id: Produto" style="text;strokeColor=none;fillColor=none;align=left;verticalAlign=top;spacingLeft=4;spacingRight=4;overflow=hidden;rotatable=0;points=[[0,0.5],[1,0.5]];portConstraint=eastwest;whiteSpace=wrap;html=1;" parent="qdGbckYBGcrFoS_aa_Sn-12" vertex="1">
          <mxGeometry y="52" width="140" height="26" as="geometry" />
        </mxCell>
        <mxCell id="E0hig0ynKckbbGIFJYIU-207" value="+ entrada: type" style="text;strokeColor=none;fillColor=none;align=left;verticalAlign=top;spacingLeft=4;spacingRight=4;overflow=hidden;rotatable=0;points=[[0,0.5],[1,0.5]];portConstraint=eastwest;whiteSpace=wrap;html=1;" parent="qdGbckYBGcrFoS_aa_Sn-12" vertex="1">
          <mxGeometry y="78" width="140" height="26" as="geometry" />
        </mxCell>
        <mxCell id="E0hig0ynKckbbGIFJYIU-208" value="+ saida: type" style="text;strokeColor=none;fillColor=none;align=left;verticalAlign=top;spacingLeft=4;spacingRight=4;overflow=hidden;rotatable=0;points=[[0,0.5],[1,0.5]];portConstraint=eastwest;whiteSpace=wrap;html=1;" parent="qdGbckYBGcrFoS_aa_Sn-12" vertex="1">
          <mxGeometry y="104" width="140" height="26" as="geometry" />
        </mxCell>
        <mxCell id="E0hig0ynKckbbGIFJYIU-209" value="+ estoque_atual: type" style="text;strokeColor=none;fillColor=none;align=left;verticalAlign=top;spacingLeft=4;spacingRight=4;overflow=hidden;rotatable=0;points=[[0,0.5],[1,0.5]];portConstraint=eastwest;whiteSpace=wrap;html=1;" parent="qdGbckYBGcrFoS_aa_Sn-12" vertex="1">
          <mxGeometry y="130" width="140" height="26" as="geometry" />
        </mxCell>
        <mxCell id="qdGbckYBGcrFoS_aa_Sn-36" value="Cartão" style="swimlane;fontStyle=0;childLayout=stackLayout;horizontal=1;startSize=26;fillColor=none;horizontalStack=0;resizeParent=1;resizeParentMax=0;resizeLast=0;collapsible=1;marginBottom=0;whiteSpace=wrap;html=1;" parent="WIyWlLk6GJQsqaUBKTNV-1" vertex="1">
          <mxGeometry x="621" y="1380" width="149" height="312" as="geometry" />
        </mxCell>
        <mxCell id="qdGbckYBGcrFoS_aa_Sn-37" value="+ id: int" style="text;strokeColor=none;fillColor=none;align=left;verticalAlign=top;spacingLeft=4;spacingRight=4;overflow=hidden;rotatable=0;points=[[0,0.5],[1,0.5]];portConstraint=eastwest;whiteSpace=wrap;html=1;" parent="qdGbckYBGcrFoS_aa_Sn-36" vertex="1">
          <mxGeometry y="26" width="149" height="26" as="geometry" />
        </mxCell>
        <mxCell id="qdGbckYBGcrFoS_aa_Sn-38" value="+ banco_id: Banco" style="text;strokeColor=none;fillColor=none;align=left;verticalAlign=top;spacingLeft=4;spacingRight=4;overflow=hidden;rotatable=0;points=[[0,0.5],[1,0.5]];portConstraint=eastwest;whiteSpace=wrap;html=1;" parent="qdGbckYBGcrFoS_aa_Sn-36" vertex="1">
          <mxGeometry y="52" width="149" height="26" as="geometry" />
        </mxCell>
        <mxCell id="qdGbckYBGcrFoS_aa_Sn-39" value="+ cliente_id: Cliente" style="text;strokeColor=none;fillColor=none;align=left;verticalAlign=top;spacingLeft=4;spacingRight=4;overflow=hidden;rotatable=0;points=[[0,0.5],[1,0.5]];portConstraint=eastwest;whiteSpace=wrap;html=1;" parent="qdGbckYBGcrFoS_aa_Sn-36" vertex="1">
          <mxGeometry y="78" width="149" height="26" as="geometry" />
        </mxCell>
        <mxCell id="E0hig0ynKckbbGIFJYIU-268" value="+ data_venda: date" style="text;strokeColor=none;fillColor=none;align=left;verticalAlign=top;spacingLeft=4;spacingRight=4;overflow=hidden;rotatable=0;points=[[0,0.5],[1,0.5]];portConstraint=eastwest;whiteSpace=wrap;html=1;" parent="qdGbckYBGcrFoS_aa_Sn-36" vertex="1">
          <mxGeometry y="104" width="149" height="26" as="geometry" />
        </mxCell>
        <mxCell id="E0hig0ynKckbbGIFJYIU-269" value="+ valor: type" style="text;strokeColor=none;fillColor=none;align=left;verticalAlign=top;spacingLeft=4;spacingRight=4;overflow=hidden;rotatable=0;points=[[0,0.5],[1,0.5]];portConstraint=eastwest;whiteSpace=wrap;html=1;" parent="qdGbckYBGcrFoS_aa_Sn-36" vertex="1">
          <mxGeometry y="130" width="149" height="26" as="geometry" />
        </mxCell>
        <mxCell id="E0hig0ynKckbbGIFJYIU-275" value="+ valor_total: type" style="text;strokeColor=none;fillColor=none;align=left;verticalAlign=top;spacingLeft=4;spacingRight=4;overflow=hidden;rotatable=0;points=[[0,0.5],[1,0.5]];portConstraint=eastwest;whiteSpace=wrap;html=1;" parent="qdGbckYBGcrFoS_aa_Sn-36" vertex="1">
          <mxGeometry y="156" width="149" height="26" as="geometry" />
        </mxCell>
        <mxCell id="E0hig0ynKckbbGIFJYIU-270" value="+ comissao: type" style="text;strokeColor=none;fillColor=none;align=left;verticalAlign=top;spacingLeft=4;spacingRight=4;overflow=hidden;rotatable=0;points=[[0,0.5],[1,0.5]];portConstraint=eastwest;whiteSpace=wrap;html=1;" parent="qdGbckYBGcrFoS_aa_Sn-36" vertex="1">
          <mxGeometry y="182" width="149" height="26" as="geometry" />
        </mxCell>
        <mxCell id="E0hig0ynKckbbGIFJYIU-271" value="+ liquido: type" style="text;strokeColor=none;fillColor=none;align=left;verticalAlign=top;spacingLeft=4;spacingRight=4;overflow=hidden;rotatable=0;points=[[0,0.5],[1,0.5]];portConstraint=eastwest;whiteSpace=wrap;html=1;" parent="qdGbckYBGcrFoS_aa_Sn-36" vertex="1">
          <mxGeometry y="208" width="149" height="26" as="geometry" />
        </mxCell>
        <mxCell id="E0hig0ynKckbbGIFJYIU-272" value="+ data_recebimento: type" style="text;strokeColor=none;fillColor=none;align=left;verticalAlign=top;spacingLeft=4;spacingRight=4;overflow=hidden;rotatable=0;points=[[0,0.5],[1,0.5]];portConstraint=eastwest;whiteSpace=wrap;html=1;" parent="qdGbckYBGcrFoS_aa_Sn-36" vertex="1">
          <mxGeometry y="234" width="149" height="26" as="geometry" />
        </mxCell>
        <mxCell id="E0hig0ynKckbbGIFJYIU-273" value="+ situacao: type" style="text;strokeColor=none;fillColor=none;align=left;verticalAlign=top;spacingLeft=4;spacingRight=4;overflow=hidden;rotatable=0;points=[[0,0.5],[1,0.5]];portConstraint=eastwest;whiteSpace=wrap;html=1;" parent="qdGbckYBGcrFoS_aa_Sn-36" vertex="1">
          <mxGeometry y="260" width="149" height="26" as="geometry" />
        </mxCell>
        <mxCell id="E0hig0ynKckbbGIFJYIU-274" value="+ parcela: type" style="text;strokeColor=none;fillColor=none;align=left;verticalAlign=top;spacingLeft=4;spacingRight=4;overflow=hidden;rotatable=0;points=[[0,0.5],[1,0.5]];portConstraint=eastwest;whiteSpace=wrap;html=1;" parent="qdGbckYBGcrFoS_aa_Sn-36" vertex="1">
          <mxGeometry y="286" width="149" height="26" as="geometry" />
        </mxCell>
        <mxCell id="qdGbckYBGcrFoS_aa_Sn-52" value="Promoção" style="swimlane;fontStyle=0;childLayout=stackLayout;horizontal=1;startSize=26;fillColor=none;horizontalStack=0;resizeParent=1;resizeParentMax=0;resizeLast=0;collapsible=1;marginBottom=0;whiteSpace=wrap;html=1;" parent="WIyWlLk6GJQsqaUBKTNV-1" vertex="1">
          <mxGeometry x="625.5" y="1200" width="140" height="156" as="geometry" />
        </mxCell>
        <mxCell id="qdGbckYBGcrFoS_aa_Sn-53" value="+ id: int" style="text;strokeColor=none;fillColor=none;align=left;verticalAlign=top;spacingLeft=4;spacingRight=4;overflow=hidden;rotatable=0;points=[[0,0.5],[1,0.5]];portConstraint=eastwest;whiteSpace=wrap;html=1;" parent="qdGbckYBGcrFoS_aa_Sn-52" vertex="1">
          <mxGeometry y="26" width="140" height="26" as="geometry" />
        </mxCell>
        <mxCell id="qdGbckYBGcrFoS_aa_Sn-54" value="+ tipo: type" style="text;strokeColor=none;fillColor=none;align=left;verticalAlign=top;spacingLeft=4;spacingRight=4;overflow=hidden;rotatable=0;points=[[0,0.5],[1,0.5]];portConstraint=eastwest;whiteSpace=wrap;html=1;" parent="qdGbckYBGcrFoS_aa_Sn-52" vertex="1">
          <mxGeometry y="52" width="140" height="26" as="geometry" />
        </mxCell>
        <mxCell id="qdGbckYBGcrFoS_aa_Sn-55" value="+ descricao: type" style="text;strokeColor=none;fillColor=none;align=left;verticalAlign=top;spacingLeft=4;spacingRight=4;overflow=hidden;rotatable=0;points=[[0,0.5],[1,0.5]];portConstraint=eastwest;whiteSpace=wrap;html=1;" parent="qdGbckYBGcrFoS_aa_Sn-52" vertex="1">
          <mxGeometry y="78" width="140" height="26" as="geometry" />
        </mxCell>
        <mxCell id="E0hig0ynKckbbGIFJYIU-253" value="+ validade: type" style="text;strokeColor=none;fillColor=none;align=left;verticalAlign=top;spacingLeft=4;spacingRight=4;overflow=hidden;rotatable=0;points=[[0,0.5],[1,0.5]];portConstraint=eastwest;whiteSpace=wrap;html=1;" parent="qdGbckYBGcrFoS_aa_Sn-52" vertex="1">
          <mxGeometry y="104" width="140" height="26" as="geometry" />
        </mxCell>
        <mxCell id="E0hig0ynKckbbGIFJYIU-254" value="+ desconto: type" style="text;strokeColor=none;fillColor=none;align=left;verticalAlign=top;spacingLeft=4;spacingRight=4;overflow=hidden;rotatable=0;points=[[0,0.5],[1,0.5]];portConstraint=eastwest;whiteSpace=wrap;html=1;" parent="qdGbckYBGcrFoS_aa_Sn-52" vertex="1">
          <mxGeometry y="130" width="140" height="26" as="geometry" />
        </mxCell>
        <mxCell id="qdGbckYBGcrFoS_aa_Sn-56" value="Pedido" style="swimlane;fontStyle=0;childLayout=stackLayout;horizontal=1;startSize=26;fillColor=none;horizontalStack=0;resizeParent=1;resizeParentMax=0;resizeLast=0;collapsible=1;marginBottom=0;whiteSpace=wrap;html=1;" parent="WIyWlLk6GJQsqaUBKTNV-1" vertex="1">
          <mxGeometry x="450" y="1754" width="140" height="260" as="geometry" />
        </mxCell>
        <mxCell id="qdGbckYBGcrFoS_aa_Sn-57" value="+ id: int" style="text;strokeColor=none;fillColor=none;align=left;verticalAlign=top;spacingLeft=4;spacingRight=4;overflow=hidden;rotatable=0;points=[[0,0.5],[1,0.5]];portConstraint=eastwest;whiteSpace=wrap;html=1;" parent="qdGbckYBGcrFoS_aa_Sn-56" vertex="1">
          <mxGeometry y="26" width="140" height="26" as="geometry" />
        </mxCell>
        <mxCell id="qdGbckYBGcrFoS_aa_Sn-58" value="+ cliente_id: type" style="text;strokeColor=none;fillColor=none;align=left;verticalAlign=top;spacingLeft=4;spacingRight=4;overflow=hidden;rotatable=0;points=[[0,0.5],[1,0.5]];portConstraint=eastwest;whiteSpace=wrap;html=1;" parent="qdGbckYBGcrFoS_aa_Sn-56" vertex="1">
          <mxGeometry y="52" width="140" height="26" as="geometry" />
        </mxCell>
        <mxCell id="qdGbckYBGcrFoS_aa_Sn-59" value="+ data: type" style="text;strokeColor=none;fillColor=none;align=left;verticalAlign=top;spacingLeft=4;spacingRight=4;overflow=hidden;rotatable=0;points=[[0,0.5],[1,0.5]];portConstraint=eastwest;whiteSpace=wrap;html=1;" parent="qdGbckYBGcrFoS_aa_Sn-56" vertex="1">
          <mxGeometry y="78" width="140" height="26" as="geometry" />
        </mxCell>
        <mxCell id="E0hig0ynKckbbGIFJYIU-194" value="+ total: type" style="text;strokeColor=none;fillColor=none;align=left;verticalAlign=top;spacingLeft=4;spacingRight=4;overflow=hidden;rotatable=0;points=[[0,0.5],[1,0.5]];portConstraint=eastwest;whiteSpace=wrap;html=1;" parent="qdGbckYBGcrFoS_aa_Sn-56" vertex="1">
          <mxGeometry y="104" width="140" height="26" as="geometry" />
        </mxCell>
        <mxCell id="E0hig0ynKckbbGIFJYIU-195" value="+ situacao: type" style="text;strokeColor=none;fillColor=none;align=left;verticalAlign=top;spacingLeft=4;spacingRight=4;overflow=hidden;rotatable=0;points=[[0,0.5],[1,0.5]];portConstraint=eastwest;whiteSpace=wrap;html=1;" parent="qdGbckYBGcrFoS_aa_Sn-56" vertex="1">
          <mxGeometry y="130" width="140" height="26" as="geometry" />
        </mxCell>
        <mxCell id="E0hig0ynKckbbGIFJYIU-196" value="+ itens_pedido_id: type" style="text;strokeColor=none;fillColor=none;align=left;verticalAlign=top;spacingLeft=4;spacingRight=4;overflow=hidden;rotatable=0;points=[[0,0.5],[1,0.5]];portConstraint=eastwest;whiteSpace=wrap;html=1;" parent="qdGbckYBGcrFoS_aa_Sn-56" vertex="1">
          <mxGeometry y="156" width="140" height="26" as="geometry" />
        </mxCell>
        <mxCell id="E0hig0ynKckbbGIFJYIU-206" value="+ ordem_entrega: type" style="text;strokeColor=none;fillColor=none;align=left;verticalAlign=top;spacingLeft=4;spacingRight=4;overflow=hidden;rotatable=0;points=[[0,0.5],[1,0.5]];portConstraint=eastwest;whiteSpace=wrap;html=1;" parent="qdGbckYBGcrFoS_aa_Sn-56" vertex="1">
          <mxGeometry y="182" width="140" height="26" as="geometry" />
        </mxCell>
        <mxCell id="E0hig0ynKckbbGIFJYIU-233" value="+ gerado_nfce: boolean" style="text;strokeColor=none;fillColor=none;align=left;verticalAlign=top;spacingLeft=4;spacingRight=4;overflow=hidden;rotatable=0;points=[[0,0.5],[1,0.5]];portConstraint=eastwest;whiteSpace=wrap;html=1;" parent="qdGbckYBGcrFoS_aa_Sn-56" vertex="1">
          <mxGeometry y="208" width="140" height="26" as="geometry" />
        </mxCell>
        <mxCell id="E0hig0ynKckbbGIFJYIU-234" value="+ gerado_nfe: boolean" style="text;strokeColor=none;fillColor=none;align=left;verticalAlign=top;spacingLeft=4;spacingRight=4;overflow=hidden;rotatable=0;points=[[0,0.5],[1,0.5]];portConstraint=eastwest;whiteSpace=wrap;html=1;" parent="qdGbckYBGcrFoS_aa_Sn-56" vertex="1">
          <mxGeometry y="234" width="140" height="26" as="geometry" />
        </mxCell>
        <mxCell id="qdGbckYBGcrFoS_aa_Sn-60" value="Entrega" style="swimlane;fontStyle=0;childLayout=stackLayout;horizontal=1;startSize=26;fillColor=none;horizontalStack=0;resizeParent=1;resizeParentMax=0;resizeLast=0;collapsible=1;marginBottom=0;whiteSpace=wrap;html=1;" parent="WIyWlLk6GJQsqaUBKTNV-1" vertex="1">
          <mxGeometry x="56" y="2140" width="140" height="130" as="geometry" />
        </mxCell>
        <mxCell id="qdGbckYBGcrFoS_aa_Sn-61" value="+ id: int" style="text;strokeColor=none;fillColor=none;align=left;verticalAlign=top;spacingLeft=4;spacingRight=4;overflow=hidden;rotatable=0;points=[[0,0.5],[1,0.5]];portConstraint=eastwest;whiteSpace=wrap;html=1;" parent="qdGbckYBGcrFoS_aa_Sn-60" vertex="1">
          <mxGeometry y="26" width="140" height="26" as="geometry" />
        </mxCell>
        <mxCell id="qdGbckYBGcrFoS_aa_Sn-62" value="+ rota: Rota" style="text;strokeColor=none;fillColor=none;align=left;verticalAlign=top;spacingLeft=4;spacingRight=4;overflow=hidden;rotatable=0;points=[[0,0.5],[1,0.5]];portConstraint=eastwest;whiteSpace=wrap;html=1;" parent="qdGbckYBGcrFoS_aa_Sn-60" vertex="1">
          <mxGeometry y="52" width="140" height="26" as="geometry" />
        </mxCell>
        <mxCell id="qdGbckYBGcrFoS_aa_Sn-63" value="+ entregador: type" style="text;strokeColor=none;fillColor=none;align=left;verticalAlign=top;spacingLeft=4;spacingRight=4;overflow=hidden;rotatable=0;points=[[0,0.5],[1,0.5]];portConstraint=eastwest;whiteSpace=wrap;html=1;" parent="qdGbckYBGcrFoS_aa_Sn-60" vertex="1">
          <mxGeometry y="78" width="140" height="26" as="geometry" />
        </mxCell>
        <mxCell id="E0hig0ynKckbbGIFJYIU-193" value="+ pedido_id: Pedido" style="text;strokeColor=none;fillColor=none;align=left;verticalAlign=top;spacingLeft=4;spacingRight=4;overflow=hidden;rotatable=0;points=[[0,0.5],[1,0.5]];portConstraint=eastwest;whiteSpace=wrap;html=1;" parent="qdGbckYBGcrFoS_aa_Sn-60" vertex="1">
          <mxGeometry y="104" width="140" height="26" as="geometry" />
        </mxCell>
        <mxCell id="qdGbckYBGcrFoS_aa_Sn-64" value="Movimento" style="swimlane;fontStyle=0;childLayout=stackLayout;horizontal=1;startSize=26;fillColor=none;horizontalStack=0;resizeParent=1;resizeParentMax=0;resizeLast=0;collapsible=1;marginBottom=0;whiteSpace=wrap;html=1;" parent="WIyWlLk6GJQsqaUBKTNV-1" vertex="1">
          <mxGeometry x="240" y="850" width="140" height="78" as="geometry" />
        </mxCell>
        <mxCell id="qdGbckYBGcrFoS_aa_Sn-65" value="+ id: int" style="text;strokeColor=none;fillColor=none;align=left;verticalAlign=top;spacingLeft=4;spacingRight=4;overflow=hidden;rotatable=0;points=[[0,0.5],[1,0.5]];portConstraint=eastwest;whiteSpace=wrap;html=1;" parent="qdGbckYBGcrFoS_aa_Sn-64" vertex="1">
          <mxGeometry y="26" width="140" height="26" as="geometry" />
        </mxCell>
        <mxCell id="qdGbckYBGcrFoS_aa_Sn-67" value="+ descricao: string" style="text;strokeColor=none;fillColor=none;align=left;verticalAlign=top;spacingLeft=4;spacingRight=4;overflow=hidden;rotatable=0;points=[[0,0.5],[1,0.5]];portConstraint=eastwest;whiteSpace=wrap;html=1;" parent="qdGbckYBGcrFoS_aa_Sn-64" vertex="1">
          <mxGeometry y="52" width="140" height="26" as="geometry" />
        </mxCell>
        <mxCell id="qdGbckYBGcrFoS_aa_Sn-72" value="Entrada" style="swimlane;fontStyle=0;childLayout=stackLayout;horizontal=1;startSize=26;fillColor=none;horizontalStack=0;resizeParent=1;resizeParentMax=0;resizeLast=0;collapsible=1;marginBottom=0;whiteSpace=wrap;html=1;" parent="WIyWlLk6GJQsqaUBKTNV-1" vertex="1">
          <mxGeometry x="620" y="1980" width="160" height="234" as="geometry" />
        </mxCell>
        <mxCell id="qdGbckYBGcrFoS_aa_Sn-73" value="+ id: int" style="text;strokeColor=none;fillColor=none;align=left;verticalAlign=top;spacingLeft=4;spacingRight=4;overflow=hidden;rotatable=0;points=[[0,0.5],[1,0.5]];portConstraint=eastwest;whiteSpace=wrap;html=1;" parent="qdGbckYBGcrFoS_aa_Sn-72" vertex="1">
          <mxGeometry y="26" width="160" height="26" as="geometry" />
        </mxCell>
        <mxCell id="qdGbckYBGcrFoS_aa_Sn-74" value="+ data_emissao: type" style="text;strokeColor=none;fillColor=none;align=left;verticalAlign=top;spacingLeft=4;spacingRight=4;overflow=hidden;rotatable=0;points=[[0,0.5],[1,0.5]];portConstraint=eastwest;whiteSpace=wrap;html=1;" parent="qdGbckYBGcrFoS_aa_Sn-72" vertex="1">
          <mxGeometry y="52" width="160" height="26" as="geometry" />
        </mxCell>
        <mxCell id="qdGbckYBGcrFoS_aa_Sn-75" value="+ data_lancamento: type" style="text;strokeColor=none;fillColor=none;align=left;verticalAlign=top;spacingLeft=4;spacingRight=4;overflow=hidden;rotatable=0;points=[[0,0.5],[1,0.5]];portConstraint=eastwest;whiteSpace=wrap;html=1;" parent="qdGbckYBGcrFoS_aa_Sn-72" vertex="1">
          <mxGeometry y="78" width="160" height="26" as="geometry" />
        </mxCell>
        <mxCell id="E0hig0ynKckbbGIFJYIU-256" value="+ total_produto: type" style="text;strokeColor=none;fillColor=none;align=left;verticalAlign=top;spacingLeft=4;spacingRight=4;overflow=hidden;rotatable=0;points=[[0,0.5],[1,0.5]];portConstraint=eastwest;whiteSpace=wrap;html=1;" parent="qdGbckYBGcrFoS_aa_Sn-72" vertex="1">
          <mxGeometry y="104" width="160" height="26" as="geometry" />
        </mxCell>
        <mxCell id="E0hig0ynKckbbGIFJYIU-257" value="+ total_nota: type" style="text;strokeColor=none;fillColor=none;align=left;verticalAlign=top;spacingLeft=4;spacingRight=4;overflow=hidden;rotatable=0;points=[[0,0.5],[1,0.5]];portConstraint=eastwest;whiteSpace=wrap;html=1;" parent="qdGbckYBGcrFoS_aa_Sn-72" vertex="1">
          <mxGeometry y="130" width="160" height="26" as="geometry" />
        </mxCell>
        <mxCell id="E0hig0ynKckbbGIFJYIU-258" value="+ chave: type" style="text;strokeColor=none;fillColor=none;align=left;verticalAlign=top;spacingLeft=4;spacingRight=4;overflow=hidden;rotatable=0;points=[[0,0.5],[1,0.5]];portConstraint=eastwest;whiteSpace=wrap;html=1;" parent="qdGbckYBGcrFoS_aa_Sn-72" vertex="1">
          <mxGeometry y="156" width="160" height="26" as="geometry" />
        </mxCell>
        <mxCell id="E0hig0ynKckbbGIFJYIU-259" value="+ fornecedor_id: type" style="text;strokeColor=none;fillColor=none;align=left;verticalAlign=top;spacingLeft=4;spacingRight=4;overflow=hidden;rotatable=0;points=[[0,0.5],[1,0.5]];portConstraint=eastwest;whiteSpace=wrap;html=1;" parent="qdGbckYBGcrFoS_aa_Sn-72" vertex="1">
          <mxGeometry y="182" width="160" height="26" as="geometry" />
        </mxCell>
        <mxCell id="E0hig0ynKckbbGIFJYIU-260" value="+ usuario_id: type" style="text;strokeColor=none;fillColor=none;align=left;verticalAlign=top;spacingLeft=4;spacingRight=4;overflow=hidden;rotatable=0;points=[[0,0.5],[1,0.5]];portConstraint=eastwest;whiteSpace=wrap;html=1;" parent="qdGbckYBGcrFoS_aa_Sn-72" vertex="1">
          <mxGeometry y="208" width="160" height="26" as="geometry" />
        </mxCell>
        <mxCell id="qdGbckYBGcrFoS_aa_Sn-76" value="Item_entrada" style="swimlane;fontStyle=0;childLayout=stackLayout;horizontal=1;startSize=26;fillColor=none;horizontalStack=0;resizeParent=1;resizeParentMax=0;resizeLast=0;collapsible=1;marginBottom=0;whiteSpace=wrap;html=1;" parent="WIyWlLk6GJQsqaUBKTNV-1" vertex="1">
          <mxGeometry x="630" y="1720" width="140" height="234" as="geometry" />
        </mxCell>
        <mxCell id="qdGbckYBGcrFoS_aa_Sn-77" value="+ id: int" style="text;strokeColor=none;fillColor=none;align=left;verticalAlign=top;spacingLeft=4;spacingRight=4;overflow=hidden;rotatable=0;points=[[0,0.5],[1,0.5]];portConstraint=eastwest;whiteSpace=wrap;html=1;" parent="qdGbckYBGcrFoS_aa_Sn-76" vertex="1">
          <mxGeometry y="26" width="140" height="26" as="geometry" />
        </mxCell>
        <mxCell id="qdGbckYBGcrFoS_aa_Sn-78" value="+ produto_id: Produto" style="text;strokeColor=none;fillColor=none;align=left;verticalAlign=top;spacingLeft=4;spacingRight=4;overflow=hidden;rotatable=0;points=[[0,0.5],[1,0.5]];portConstraint=eastwest;whiteSpace=wrap;html=1;" parent="qdGbckYBGcrFoS_aa_Sn-76" vertex="1">
          <mxGeometry y="52" width="140" height="26" as="geometry" />
        </mxCell>
        <mxCell id="qdGbckYBGcrFoS_aa_Sn-79" value="+ qtde: type" style="text;strokeColor=none;fillColor=none;align=left;verticalAlign=top;spacingLeft=4;spacingRight=4;overflow=hidden;rotatable=0;points=[[0,0.5],[1,0.5]];portConstraint=eastwest;whiteSpace=wrap;html=1;" parent="qdGbckYBGcrFoS_aa_Sn-76" vertex="1">
          <mxGeometry y="78" width="140" height="26" as="geometry" />
        </mxCell>
        <mxCell id="E0hig0ynKckbbGIFJYIU-263" value="+ v_unitario: type" style="text;strokeColor=none;fillColor=none;align=left;verticalAlign=top;spacingLeft=4;spacingRight=4;overflow=hidden;rotatable=0;points=[[0,0.5],[1,0.5]];portConstraint=eastwest;whiteSpace=wrap;html=1;" parent="qdGbckYBGcrFoS_aa_Sn-76" vertex="1">
          <mxGeometry y="104" width="140" height="26" as="geometry" />
        </mxCell>
        <mxCell id="E0hig0ynKckbbGIFJYIU-264" value="+ v_venda: type" style="text;strokeColor=none;fillColor=none;align=left;verticalAlign=top;spacingLeft=4;spacingRight=4;overflow=hidden;rotatable=0;points=[[0,0.5],[1,0.5]];portConstraint=eastwest;whiteSpace=wrap;html=1;" parent="qdGbckYBGcrFoS_aa_Sn-76" vertex="1">
          <mxGeometry y="130" width="140" height="26" as="geometry" />
        </mxCell>
        <mxCell id="E0hig0ynKckbbGIFJYIU-265" value="+ desconto: type" style="text;strokeColor=none;fillColor=none;align=left;verticalAlign=top;spacingLeft=4;spacingRight=4;overflow=hidden;rotatable=0;points=[[0,0.5],[1,0.5]];portConstraint=eastwest;whiteSpace=wrap;html=1;" parent="qdGbckYBGcrFoS_aa_Sn-76" vertex="1">
          <mxGeometry y="156" width="140" height="26" as="geometry" />
        </mxCell>
        <mxCell id="E0hig0ynKckbbGIFJYIU-266" value="+ acrescimo: type" style="text;strokeColor=none;fillColor=none;align=left;verticalAlign=top;spacingLeft=4;spacingRight=4;overflow=hidden;rotatable=0;points=[[0,0.5],[1,0.5]];portConstraint=eastwest;whiteSpace=wrap;html=1;" parent="qdGbckYBGcrFoS_aa_Sn-76" vertex="1">
          <mxGeometry y="182" width="140" height="26" as="geometry" />
        </mxCell>
        <mxCell id="E0hig0ynKckbbGIFJYIU-267" value="+ entrada_id: Entrada" style="text;strokeColor=none;fillColor=none;align=left;verticalAlign=top;spacingLeft=4;spacingRight=4;overflow=hidden;rotatable=0;points=[[0,0.5],[1,0.5]];portConstraint=eastwest;whiteSpace=wrap;html=1;" parent="qdGbckYBGcrFoS_aa_Sn-76" vertex="1">
          <mxGeometry y="208" width="140" height="26" as="geometry" />
        </mxCell>
        <mxCell id="qdGbckYBGcrFoS_aa_Sn-88" value="Notificação" style="swimlane;fontStyle=0;childLayout=stackLayout;horizontal=1;startSize=26;fillColor=none;horizontalStack=0;resizeParent=1;resizeParentMax=0;resizeLast=0;collapsible=1;marginBottom=0;whiteSpace=wrap;html=1;" parent="WIyWlLk6GJQsqaUBKTNV-1" vertex="1">
          <mxGeometry x="56" y="1992" width="140" height="130" as="geometry" />
        </mxCell>
        <mxCell id="qdGbckYBGcrFoS_aa_Sn-89" value="+ id: int" style="text;strokeColor=none;fillColor=none;align=left;verticalAlign=top;spacingLeft=4;spacingRight=4;overflow=hidden;rotatable=0;points=[[0,0.5],[1,0.5]];portConstraint=eastwest;whiteSpace=wrap;html=1;" parent="qdGbckYBGcrFoS_aa_Sn-88" vertex="1">
          <mxGeometry y="26" width="140" height="26" as="geometry" />
        </mxCell>
        <mxCell id="qdGbckYBGcrFoS_aa_Sn-90" value="+ titulo: type" style="text;strokeColor=none;fillColor=none;align=left;verticalAlign=top;spacingLeft=4;spacingRight=4;overflow=hidden;rotatable=0;points=[[0,0.5],[1,0.5]];portConstraint=eastwest;whiteSpace=wrap;html=1;" parent="qdGbckYBGcrFoS_aa_Sn-88" vertex="1">
          <mxGeometry y="52" width="140" height="26" as="geometry" />
        </mxCell>
        <mxCell id="qdGbckYBGcrFoS_aa_Sn-91" value="+ corpo: type" style="text;strokeColor=none;fillColor=none;align=left;verticalAlign=top;spacingLeft=4;spacingRight=4;overflow=hidden;rotatable=0;points=[[0,0.5],[1,0.5]];portConstraint=eastwest;whiteSpace=wrap;html=1;" parent="qdGbckYBGcrFoS_aa_Sn-88" vertex="1">
          <mxGeometry y="78" width="140" height="26" as="geometry" />
        </mxCell>
        <mxCell id="E0hig0ynKckbbGIFJYIU-191" value="+ categoria: type" style="text;strokeColor=none;fillColor=none;align=left;verticalAlign=top;spacingLeft=4;spacingRight=4;overflow=hidden;rotatable=0;points=[[0,0.5],[1,0.5]];portConstraint=eastwest;whiteSpace=wrap;html=1;" parent="qdGbckYBGcrFoS_aa_Sn-88" vertex="1">
          <mxGeometry y="104" width="140" height="26" as="geometry" />
        </mxCell>
        <mxCell id="qdGbckYBGcrFoS_aa_Sn-96" value="Comodato" style="swimlane;fontStyle=0;childLayout=stackLayout;horizontal=1;startSize=26;fillColor=none;horizontalStack=0;resizeParent=1;resizeParentMax=0;resizeLast=0;collapsible=1;marginBottom=0;whiteSpace=wrap;html=1;" parent="WIyWlLk6GJQsqaUBKTNV-1" vertex="1">
          <mxGeometry x="650" y="860" width="140" height="182" as="geometry" />
        </mxCell>
        <mxCell id="qdGbckYBGcrFoS_aa_Sn-97" value="+ id: int" style="text;strokeColor=none;fillColor=none;align=left;verticalAlign=top;spacingLeft=4;spacingRight=4;overflow=hidden;rotatable=0;points=[[0,0.5],[1,0.5]];portConstraint=eastwest;whiteSpace=wrap;html=1;" parent="qdGbckYBGcrFoS_aa_Sn-96" vertex="1">
          <mxGeometry y="26" width="140" height="26" as="geometry" />
        </mxCell>
        <mxCell id="qdGbckYBGcrFoS_aa_Sn-98" value="+ equipamento_id: type" style="text;strokeColor=none;fillColor=none;align=left;verticalAlign=top;spacingLeft=4;spacingRight=4;overflow=hidden;rotatable=0;points=[[0,0.5],[1,0.5]];portConstraint=eastwest;whiteSpace=wrap;html=1;" parent="qdGbckYBGcrFoS_aa_Sn-96" vertex="1">
          <mxGeometry y="52" width="140" height="26" as="geometry" />
        </mxCell>
        <mxCell id="qdGbckYBGcrFoS_aa_Sn-99" value="+ data_inicio: type" style="text;strokeColor=none;fillColor=none;align=left;verticalAlign=top;spacingLeft=4;spacingRight=4;overflow=hidden;rotatable=0;points=[[0,0.5],[1,0.5]];portConstraint=eastwest;whiteSpace=wrap;html=1;" parent="qdGbckYBGcrFoS_aa_Sn-96" vertex="1">
          <mxGeometry y="78" width="140" height="26" as="geometry" />
        </mxCell>
        <mxCell id="E0hig0ynKckbbGIFJYIU-186" value="+ data_fim: type" style="text;strokeColor=none;fillColor=none;align=left;verticalAlign=top;spacingLeft=4;spacingRight=4;overflow=hidden;rotatable=0;points=[[0,0.5],[1,0.5]];portConstraint=eastwest;whiteSpace=wrap;html=1;" parent="qdGbckYBGcrFoS_aa_Sn-96" vertex="1">
          <mxGeometry y="104" width="140" height="26" as="geometry" />
        </mxCell>
        <mxCell id="E0hig0ynKckbbGIFJYIU-187" value="+ cliente_id: type" style="text;strokeColor=none;fillColor=none;align=left;verticalAlign=top;spacingLeft=4;spacingRight=4;overflow=hidden;rotatable=0;points=[[0,0.5],[1,0.5]];portConstraint=eastwest;whiteSpace=wrap;html=1;" parent="qdGbckYBGcrFoS_aa_Sn-96" vertex="1">
          <mxGeometry y="130" width="140" height="26" as="geometry" />
        </mxCell>
        <mxCell id="E0hig0ynKckbbGIFJYIU-188" value="+ documento: type" style="text;strokeColor=none;fillColor=none;align=left;verticalAlign=top;spacingLeft=4;spacingRight=4;overflow=hidden;rotatable=0;points=[[0,0.5],[1,0.5]];portConstraint=eastwest;whiteSpace=wrap;html=1;" parent="qdGbckYBGcrFoS_aa_Sn-96" vertex="1">
          <mxGeometry y="156" width="140" height="26" as="geometry" />
        </mxCell>
        <mxCell id="qdGbckYBGcrFoS_aa_Sn-100" value="Equipamentos" style="swimlane;fontStyle=0;childLayout=stackLayout;horizontal=1;startSize=26;fillColor=none;horizontalStack=0;resizeParent=1;resizeParentMax=0;resizeLast=0;collapsible=1;marginBottom=0;whiteSpace=wrap;html=1;" parent="WIyWlLk6GJQsqaUBKTNV-1" vertex="1">
          <mxGeometry x="446" y="1598" width="140" height="130" as="geometry" />
        </mxCell>
        <mxCell id="qdGbckYBGcrFoS_aa_Sn-101" value="+ id: int" style="text;strokeColor=none;fillColor=none;align=left;verticalAlign=top;spacingLeft=4;spacingRight=4;overflow=hidden;rotatable=0;points=[[0,0.5],[1,0.5]];portConstraint=eastwest;whiteSpace=wrap;html=1;" parent="qdGbckYBGcrFoS_aa_Sn-100" vertex="1">
          <mxGeometry y="26" width="140" height="26" as="geometry" />
        </mxCell>
        <mxCell id="qdGbckYBGcrFoS_aa_Sn-102" value="+ descricao: type" style="text;strokeColor=none;fillColor=none;align=left;verticalAlign=top;spacingLeft=4;spacingRight=4;overflow=hidden;rotatable=0;points=[[0,0.5],[1,0.5]];portConstraint=eastwest;whiteSpace=wrap;html=1;" parent="qdGbckYBGcrFoS_aa_Sn-100" vertex="1">
          <mxGeometry y="52" width="140" height="26" as="geometry" />
        </mxCell>
        <mxCell id="qdGbckYBGcrFoS_aa_Sn-103" value="+ valor: type" style="text;strokeColor=none;fillColor=none;align=left;verticalAlign=top;spacingLeft=4;spacingRight=4;overflow=hidden;rotatable=0;points=[[0,0.5],[1,0.5]];portConstraint=eastwest;whiteSpace=wrap;html=1;" parent="qdGbckYBGcrFoS_aa_Sn-100" vertex="1">
          <mxGeometry y="78" width="140" height="26" as="geometry" />
        </mxCell>
        <mxCell id="E0hig0ynKckbbGIFJYIU-183" value="+ observacao: type" style="text;strokeColor=none;fillColor=none;align=left;verticalAlign=top;spacingLeft=4;spacingRight=4;overflow=hidden;rotatable=0;points=[[0,0.5],[1,0.5]];portConstraint=eastwest;whiteSpace=wrap;html=1;" parent="qdGbckYBGcrFoS_aa_Sn-100" vertex="1">
          <mxGeometry y="104" width="140" height="26" as="geometry" />
        </mxCell>
        <mxCell id="qdGbckYBGcrFoS_aa_Sn-108" value="Rota" style="swimlane;fontStyle=0;childLayout=stackLayout;horizontal=1;startSize=26;fillColor=none;horizontalStack=0;resizeParent=1;resizeParentMax=0;resizeLast=0;collapsible=1;marginBottom=0;whiteSpace=wrap;html=1;" parent="WIyWlLk6GJQsqaUBKTNV-1" vertex="1">
          <mxGeometry x="50" y="1042" width="140" height="104" as="geometry" />
        </mxCell>
        <mxCell id="qdGbckYBGcrFoS_aa_Sn-109" value="+ id: int" style="text;strokeColor=none;fillColor=none;align=left;verticalAlign=top;spacingLeft=4;spacingRight=4;overflow=hidden;rotatable=0;points=[[0,0.5],[1,0.5]];portConstraint=eastwest;whiteSpace=wrap;html=1;" parent="qdGbckYBGcrFoS_aa_Sn-108" vertex="1">
          <mxGeometry y="26" width="140" height="26" as="geometry" />
        </mxCell>
        <mxCell id="qdGbckYBGcrFoS_aa_Sn-110" value="+ descricao: type" style="text;strokeColor=none;fillColor=none;align=left;verticalAlign=top;spacingLeft=4;spacingRight=4;overflow=hidden;rotatable=0;points=[[0,0.5],[1,0.5]];portConstraint=eastwest;whiteSpace=wrap;html=1;" parent="qdGbckYBGcrFoS_aa_Sn-108" vertex="1">
          <mxGeometry y="52" width="140" height="26" as="geometry" />
        </mxCell>
        <mxCell id="qdGbckYBGcrFoS_aa_Sn-111" value="+ data: type" style="text;strokeColor=none;fillColor=none;align=left;verticalAlign=top;spacingLeft=4;spacingRight=4;overflow=hidden;rotatable=0;points=[[0,0.5],[1,0.5]];portConstraint=eastwest;whiteSpace=wrap;html=1;" parent="qdGbckYBGcrFoS_aa_Sn-108" vertex="1">
          <mxGeometry y="78" width="140" height="26" as="geometry" />
        </mxCell>
        <mxCell id="qdGbckYBGcrFoS_aa_Sn-112" value="Preferencias" style="swimlane;fontStyle=0;childLayout=stackLayout;horizontal=1;startSize=26;fillColor=none;horizontalStack=0;resizeParent=1;resizeParentMax=0;resizeLast=0;collapsible=1;marginBottom=0;whiteSpace=wrap;html=1;" parent="WIyWlLk6GJQsqaUBKTNV-1" vertex="1">
          <mxGeometry x="260" y="2190" width="140" height="104" as="geometry" />
        </mxCell>
        <mxCell id="qdGbckYBGcrFoS_aa_Sn-113" value="+ id: int" style="text;strokeColor=none;fillColor=none;align=left;verticalAlign=top;spacingLeft=4;spacingRight=4;overflow=hidden;rotatable=0;points=[[0,0.5],[1,0.5]];portConstraint=eastwest;whiteSpace=wrap;html=1;" parent="qdGbckYBGcrFoS_aa_Sn-112" vertex="1">
          <mxGeometry y="26" width="140" height="26" as="geometry" />
        </mxCell>
        <mxCell id="qdGbckYBGcrFoS_aa_Sn-114" value="+ field: type" style="text;strokeColor=none;fillColor=none;align=left;verticalAlign=top;spacingLeft=4;spacingRight=4;overflow=hidden;rotatable=0;points=[[0,0.5],[1,0.5]];portConstraint=eastwest;whiteSpace=wrap;html=1;" parent="qdGbckYBGcrFoS_aa_Sn-112" vertex="1">
          <mxGeometry y="52" width="140" height="26" as="geometry" />
        </mxCell>
        <mxCell id="qdGbckYBGcrFoS_aa_Sn-115" value="+ field: type" style="text;strokeColor=none;fillColor=none;align=left;verticalAlign=top;spacingLeft=4;spacingRight=4;overflow=hidden;rotatable=0;points=[[0,0.5],[1,0.5]];portConstraint=eastwest;whiteSpace=wrap;html=1;" parent="qdGbckYBGcrFoS_aa_Sn-112" vertex="1">
          <mxGeometry y="78" width="140" height="26" as="geometry" />
        </mxCell>
        <mxCell id="qdGbckYBGcrFoS_aa_Sn-116" value="Cupom" style="swimlane;fontStyle=0;childLayout=stackLayout;horizontal=1;startSize=26;fillColor=none;horizontalStack=0;resizeParent=1;resizeParentMax=0;resizeLast=0;collapsible=1;marginBottom=0;whiteSpace=wrap;html=1;" parent="WIyWlLk6GJQsqaUBKTNV-1" vertex="1">
          <mxGeometry x="260" y="1940" width="140" height="234" as="geometry" />
        </mxCell>
        <mxCell id="qdGbckYBGcrFoS_aa_Sn-117" value="+ id: int" style="text;strokeColor=none;fillColor=none;align=left;verticalAlign=top;spacingLeft=4;spacingRight=4;overflow=hidden;rotatable=0;points=[[0,0.5],[1,0.5]];portConstraint=eastwest;whiteSpace=wrap;html=1;" parent="qdGbckYBGcrFoS_aa_Sn-116" vertex="1">
          <mxGeometry y="26" width="140" height="26" as="geometry" />
        </mxCell>
        <mxCell id="qdGbckYBGcrFoS_aa_Sn-118" value="+ numero: type" style="text;strokeColor=none;fillColor=none;align=left;verticalAlign=top;spacingLeft=4;spacingRight=4;overflow=hidden;rotatable=0;points=[[0,0.5],[1,0.5]];portConstraint=eastwest;whiteSpace=wrap;html=1;" parent="qdGbckYBGcrFoS_aa_Sn-116" vertex="1">
          <mxGeometry y="52" width="140" height="26" as="geometry" />
        </mxCell>
        <mxCell id="qdGbckYBGcrFoS_aa_Sn-119" value="+ data: type" style="text;strokeColor=none;fillColor=none;align=left;verticalAlign=top;spacingLeft=4;spacingRight=4;overflow=hidden;rotatable=0;points=[[0,0.5],[1,0.5]];portConstraint=eastwest;whiteSpace=wrap;html=1;" parent="qdGbckYBGcrFoS_aa_Sn-116" vertex="1">
          <mxGeometry y="78" width="140" height="26" as="geometry" />
        </mxCell>
        <mxCell id="E0hig0ynKckbbGIFJYIU-224" value="+ usuario_id: type" style="text;strokeColor=none;fillColor=none;align=left;verticalAlign=top;spacingLeft=4;spacingRight=4;overflow=hidden;rotatable=0;points=[[0,0.5],[1,0.5]];portConstraint=eastwest;whiteSpace=wrap;html=1;" parent="qdGbckYBGcrFoS_aa_Sn-116" vertex="1">
          <mxGeometry y="104" width="140" height="26" as="geometry" />
        </mxCell>
        <mxCell id="E0hig0ynKckbbGIFJYIU-225" value="+ gerou_nfce: boolean" style="text;strokeColor=none;fillColor=none;align=left;verticalAlign=top;spacingLeft=4;spacingRight=4;overflow=hidden;rotatable=0;points=[[0,0.5],[1,0.5]];portConstraint=eastwest;whiteSpace=wrap;html=1;" parent="qdGbckYBGcrFoS_aa_Sn-116" vertex="1">
          <mxGeometry y="130" width="140" height="26" as="geometry" />
        </mxCell>
        <mxCell id="E0hig0ynKckbbGIFJYIU-226" value="+ hora: type" style="text;strokeColor=none;fillColor=none;align=left;verticalAlign=top;spacingLeft=4;spacingRight=4;overflow=hidden;rotatable=0;points=[[0,0.5],[1,0.5]];portConstraint=eastwest;whiteSpace=wrap;html=1;" parent="qdGbckYBGcrFoS_aa_Sn-116" vertex="1">
          <mxGeometry y="156" width="140" height="26" as="geometry" />
        </mxCell>
        <mxCell id="E0hig0ynKckbbGIFJYIU-227" value="+ total: type" style="text;strokeColor=none;fillColor=none;align=left;verticalAlign=top;spacingLeft=4;spacingRight=4;overflow=hidden;rotatable=0;points=[[0,0.5],[1,0.5]];portConstraint=eastwest;whiteSpace=wrap;html=1;" parent="qdGbckYBGcrFoS_aa_Sn-116" vertex="1">
          <mxGeometry y="182" width="140" height="26" as="geometry" />
        </mxCell>
        <mxCell id="E0hig0ynKckbbGIFJYIU-228" value="+ qtde_item: type" style="text;strokeColor=none;fillColor=none;align=left;verticalAlign=top;spacingLeft=4;spacingRight=4;overflow=hidden;rotatable=0;points=[[0,0.5],[1,0.5]];portConstraint=eastwest;whiteSpace=wrap;html=1;" parent="qdGbckYBGcrFoS_aa_Sn-116" vertex="1">
          <mxGeometry y="208" width="140" height="26" as="geometry" />
        </mxCell>
        <mxCell id="qdGbckYBGcrFoS_aa_Sn-124" value="NFCE" style="swimlane;fontStyle=0;childLayout=stackLayout;horizontal=1;startSize=26;fillColor=none;horizontalStack=0;resizeParent=1;resizeParentMax=0;resizeLast=0;collapsible=1;marginBottom=0;whiteSpace=wrap;html=1;" parent="WIyWlLk6GJQsqaUBKTNV-1" vertex="1">
          <mxGeometry x="260" y="1650" width="140" height="260" as="geometry" />
        </mxCell>
        <mxCell id="qdGbckYBGcrFoS_aa_Sn-125" value="+ id: int" style="text;strokeColor=none;fillColor=none;align=left;verticalAlign=top;spacingLeft=4;spacingRight=4;overflow=hidden;rotatable=0;points=[[0,0.5],[1,0.5]];portConstraint=eastwest;whiteSpace=wrap;html=1;" parent="qdGbckYBGcrFoS_aa_Sn-124" vertex="1">
          <mxGeometry y="26" width="140" height="26" as="geometry" />
        </mxCell>
        <mxCell id="qdGbckYBGcrFoS_aa_Sn-126" value="+ numero: type" style="text;strokeColor=none;fillColor=none;align=left;verticalAlign=top;spacingLeft=4;spacingRight=4;overflow=hidden;rotatable=0;points=[[0,0.5],[1,0.5]];portConstraint=eastwest;whiteSpace=wrap;html=1;" parent="qdGbckYBGcrFoS_aa_Sn-124" vertex="1">
          <mxGeometry y="52" width="140" height="26" as="geometry" />
        </mxCell>
        <mxCell id="qdGbckYBGcrFoS_aa_Sn-127" value="+ serie: type" style="text;strokeColor=none;fillColor=none;align=left;verticalAlign=top;spacingLeft=4;spacingRight=4;overflow=hidden;rotatable=0;points=[[0,0.5],[1,0.5]];portConstraint=eastwest;whiteSpace=wrap;html=1;" parent="qdGbckYBGcrFoS_aa_Sn-124" vertex="1">
          <mxGeometry y="78" width="140" height="26" as="geometry" />
        </mxCell>
        <mxCell id="E0hig0ynKckbbGIFJYIU-212" value="+ chave: type" style="text;strokeColor=none;fillColor=none;align=left;verticalAlign=top;spacingLeft=4;spacingRight=4;overflow=hidden;rotatable=0;points=[[0,0.5],[1,0.5]];portConstraint=eastwest;whiteSpace=wrap;html=1;" parent="qdGbckYBGcrFoS_aa_Sn-124" vertex="1">
          <mxGeometry y="104" width="140" height="26" as="geometry" />
        </mxCell>
        <mxCell id="E0hig0ynKckbbGIFJYIU-213" value="+ data: type" style="text;strokeColor=none;fillColor=none;align=left;verticalAlign=top;spacingLeft=4;spacingRight=4;overflow=hidden;rotatable=0;points=[[0,0.5],[1,0.5]];portConstraint=eastwest;whiteSpace=wrap;html=1;" parent="qdGbckYBGcrFoS_aa_Sn-124" vertex="1">
          <mxGeometry y="130" width="140" height="26" as="geometry" />
        </mxCell>
        <mxCell id="E0hig0ynKckbbGIFJYIU-214" value="+ cupom_id: Cupom" style="text;strokeColor=none;fillColor=none;align=left;verticalAlign=top;spacingLeft=4;spacingRight=4;overflow=hidden;rotatable=0;points=[[0,0.5],[1,0.5]];portConstraint=eastwest;whiteSpace=wrap;html=1;" parent="qdGbckYBGcrFoS_aa_Sn-124" vertex="1">
          <mxGeometry y="156" width="140" height="26" as="geometry" />
        </mxCell>
        <mxCell id="E0hig0ynKckbbGIFJYIU-215" value="+ situacao: type" style="text;strokeColor=none;fillColor=none;align=left;verticalAlign=top;spacingLeft=4;spacingRight=4;overflow=hidden;rotatable=0;points=[[0,0.5],[1,0.5]];portConstraint=eastwest;whiteSpace=wrap;html=1;" parent="qdGbckYBGcrFoS_aa_Sn-124" vertex="1">
          <mxGeometry y="182" width="140" height="26" as="geometry" />
        </mxCell>
        <mxCell id="E0hig0ynKckbbGIFJYIU-216" value="+ erro: string" style="text;strokeColor=none;fillColor=none;align=left;verticalAlign=top;spacingLeft=4;spacingRight=4;overflow=hidden;rotatable=0;points=[[0,0.5],[1,0.5]];portConstraint=eastwest;whiteSpace=wrap;html=1;" parent="qdGbckYBGcrFoS_aa_Sn-124" vertex="1">
          <mxGeometry y="208" width="140" height="26" as="geometry" />
        </mxCell>
        <mxCell id="E0hig0ynKckbbGIFJYIU-223" value="+ xml: string" style="text;strokeColor=none;fillColor=none;align=left;verticalAlign=top;spacingLeft=4;spacingRight=4;overflow=hidden;rotatable=0;points=[[0,0.5],[1,0.5]];portConstraint=eastwest;whiteSpace=wrap;html=1;" parent="qdGbckYBGcrFoS_aa_Sn-124" vertex="1">
          <mxGeometry y="234" width="140" height="26" as="geometry" />
        </mxCell>
        <mxCell id="E0hig0ynKckbbGIFJYIU-1" value="Produto" style="swimlane;fontStyle=0;childLayout=stackLayout;horizontal=1;startSize=26;fillColor=none;horizontalStack=0;resizeParent=1;resizeParentMax=0;resizeLast=0;collapsible=1;marginBottom=0;whiteSpace=wrap;html=1;" parent="WIyWlLk6GJQsqaUBKTNV-1" vertex="1">
          <mxGeometry x="435" y="550" width="170" height="520" as="geometry" />
        </mxCell>
        <mxCell id="E0hig0ynKckbbGIFJYIU-2" value="+ id: int" style="text;strokeColor=none;fillColor=none;align=left;verticalAlign=top;spacingLeft=4;spacingRight=4;overflow=hidden;rotatable=0;points=[[0,0.5],[1,0.5]];portConstraint=eastwest;whiteSpace=wrap;html=1;" parent="E0hig0ynKckbbGIFJYIU-1" vertex="1">
          <mxGeometry y="26" width="170" height="26" as="geometry" />
        </mxCell>
        <mxCell id="E0hig0ynKckbbGIFJYIU-3" value="+ descricao: string" style="text;strokeColor=none;fillColor=none;align=left;verticalAlign=top;spacingLeft=4;spacingRight=4;overflow=hidden;rotatable=0;points=[[0,0.5],[1,0.5]];portConstraint=eastwest;whiteSpace=wrap;html=1;" parent="E0hig0ynKckbbGIFJYIU-1" vertex="1">
          <mxGeometry y="52" width="170" height="26" as="geometry" />
        </mxCell>
        <mxCell id="E0hig0ynKckbbGIFJYIU-4" value="+ tipo: string" style="text;strokeColor=none;fillColor=none;align=left;verticalAlign=top;spacingLeft=4;spacingRight=4;overflow=hidden;rotatable=0;points=[[0,0.5],[1,0.5]];portConstraint=eastwest;whiteSpace=wrap;html=1;" parent="E0hig0ynKckbbGIFJYIU-1" vertex="1">
          <mxGeometry y="78" width="170" height="26" as="geometry" />
        </mxCell>
        <mxCell id="E0hig0ynKckbbGIFJYIU-5" value="+ situacao: string" style="text;strokeColor=none;fillColor=none;align=left;verticalAlign=top;spacingLeft=4;spacingRight=4;overflow=hidden;rotatable=0;points=[[0,0.5],[1,0.5]];portConstraint=eastwest;whiteSpace=wrap;html=1;" parent="E0hig0ynKckbbGIFJYIU-1" vertex="1">
          <mxGeometry y="104" width="170" height="26" as="geometry" />
        </mxCell>
        <mxCell id="E0hig0ynKckbbGIFJYIU-6" value="+ ean: string" style="text;strokeColor=none;fillColor=none;align=left;verticalAlign=top;spacingLeft=4;spacingRight=4;overflow=hidden;rotatable=0;points=[[0,0.5],[1,0.5]];portConstraint=eastwest;whiteSpace=wrap;html=1;" parent="E0hig0ynKckbbGIFJYIU-1" vertex="1">
          <mxGeometry y="130" width="170" height="26" as="geometry" />
        </mxCell>
        <mxCell id="E0hig0ynKckbbGIFJYIU-7" value="+ preco_custo: string" style="text;strokeColor=none;fillColor=none;align=left;verticalAlign=top;spacingLeft=4;spacingRight=4;overflow=hidden;rotatable=0;points=[[0,0.5],[1,0.5]];portConstraint=eastwest;whiteSpace=wrap;html=1;" parent="E0hig0ynKckbbGIFJYIU-1" vertex="1">
          <mxGeometry y="156" width="170" height="26" as="geometry" />
        </mxCell>
        <mxCell id="E0hig0ynKckbbGIFJYIU-8" value="+ preco_venda: string" style="text;strokeColor=none;fillColor=none;align=left;verticalAlign=top;spacingLeft=4;spacingRight=4;overflow=hidden;rotatable=0;points=[[0,0.5],[1,0.5]];portConstraint=eastwest;whiteSpace=wrap;html=1;" parent="E0hig0ynKckbbGIFJYIU-1" vertex="1">
          <mxGeometry y="182" width="170" height="26" as="geometry" />
        </mxCell>
        <mxCell id="E0hig0ynKckbbGIFJYIU-9" value="+ ncm: string" style="text;strokeColor=none;fillColor=none;align=left;verticalAlign=top;spacingLeft=4;spacingRight=4;overflow=hidden;rotatable=0;points=[[0,0.5],[1,0.5]];portConstraint=eastwest;whiteSpace=wrap;html=1;" parent="E0hig0ynKckbbGIFJYIU-1" vertex="1">
          <mxGeometry y="208" width="170" height="26" as="geometry" />
        </mxCell>
        <mxCell id="E0hig0ynKckbbGIFJYIU-10" value="+ cst: string" style="text;strokeColor=none;fillColor=none;align=left;verticalAlign=top;spacingLeft=4;spacingRight=4;overflow=hidden;rotatable=0;points=[[0,0.5],[1,0.5]];portConstraint=eastwest;whiteSpace=wrap;html=1;" parent="E0hig0ynKckbbGIFJYIU-1" vertex="1">
          <mxGeometry y="234" width="170" height="26" as="geometry" />
        </mxCell>
        <mxCell id="E0hig0ynKckbbGIFJYIU-11" value="+ cfop_interno: string" style="text;strokeColor=none;fillColor=none;align=left;verticalAlign=top;spacingLeft=4;spacingRight=4;overflow=hidden;rotatable=0;points=[[0,0.5],[1,0.5]];portConstraint=eastwest;whiteSpace=wrap;html=1;" parent="E0hig0ynKckbbGIFJYIU-1" vertex="1">
          <mxGeometry y="260" width="170" height="26" as="geometry" />
        </mxCell>
        <mxCell id="E0hig0ynKckbbGIFJYIU-12" value="+ cfop_externo: string" style="text;strokeColor=none;fillColor=none;align=left;verticalAlign=top;spacingLeft=4;spacingRight=4;overflow=hidden;rotatable=0;points=[[0,0.5],[1,0.5]];portConstraint=eastwest;whiteSpace=wrap;html=1;" parent="E0hig0ynKckbbGIFJYIU-1" vertex="1">
          <mxGeometry y="286" width="170" height="26" as="geometry" />
        </mxCell>
        <mxCell id="E0hig0ynKckbbGIFJYIU-13" value="+ aliquota: string" style="text;strokeColor=none;fillColor=none;align=left;verticalAlign=top;spacingLeft=4;spacingRight=4;overflow=hidden;rotatable=0;points=[[0,0.5],[1,0.5]];portConstraint=eastwest;whiteSpace=wrap;html=1;" parent="E0hig0ynKckbbGIFJYIU-1" vertex="1">
          <mxGeometry y="312" width="170" height="26" as="geometry" />
        </mxCell>
        <mxCell id="E0hig0ynKckbbGIFJYIU-14" value="+ csosn: string" style="text;strokeColor=none;fillColor=none;align=left;verticalAlign=top;spacingLeft=4;spacingRight=4;overflow=hidden;rotatable=0;points=[[0,0.5],[1,0.5]];portConstraint=eastwest;whiteSpace=wrap;html=1;" parent="E0hig0ynKckbbGIFJYIU-1" vertex="1">
          <mxGeometry y="338" width="170" height="26" as="geometry" />
        </mxCell>
        <mxCell id="E0hig0ynKckbbGIFJYIU-16" value="+ app: boolean" style="text;strokeColor=none;fillColor=none;align=left;verticalAlign=top;spacingLeft=4;spacingRight=4;overflow=hidden;rotatable=0;points=[[0,0.5],[1,0.5]];portConstraint=eastwest;whiteSpace=wrap;html=1;" parent="E0hig0ynKckbbGIFJYIU-1" vertex="1">
          <mxGeometry y="364" width="170" height="26" as="geometry" />
        </mxCell>
        <mxCell id="E0hig0ynKckbbGIFJYIU-211" value="+ tipo_estoque: boolean" style="text;strokeColor=none;fillColor=none;align=left;verticalAlign=top;spacingLeft=4;spacingRight=4;overflow=hidden;rotatable=0;points=[[0,0.5],[1,0.5]];portConstraint=eastwest;whiteSpace=wrap;html=1;" parent="E0hig0ynKckbbGIFJYIU-1" vertex="1">
          <mxGeometry y="390" width="170" height="26" as="geometry" />
        </mxCell>
        <mxCell id="hAUUYJSyRm2__0phyNZ1-0" value="+ estoque_minimo: type" style="text;strokeColor=none;fillColor=none;align=left;verticalAlign=top;spacingLeft=4;spacingRight=4;overflow=hidden;rotatable=0;points=[[0,0.5],[1,0.5]];portConstraint=eastwest;whiteSpace=wrap;html=1;" vertex="1" parent="E0hig0ynKckbbGIFJYIU-1">
          <mxGeometry y="416" width="170" height="26" as="geometry" />
        </mxCell>
        <mxCell id="hAUUYJSyRm2__0phyNZ1-1" value="+ validade: date" style="text;strokeColor=none;fillColor=none;align=left;verticalAlign=top;spacingLeft=4;spacingRight=4;overflow=hidden;rotatable=0;points=[[0,0.5],[1,0.5]];portConstraint=eastwest;whiteSpace=wrap;html=1;" vertex="1" parent="E0hig0ynKckbbGIFJYIU-1">
          <mxGeometry y="442" width="170" height="26" as="geometry" />
        </mxCell>
        <mxCell id="E0hig0ynKckbbGIFJYIU-280" value="+ foto: type" style="text;strokeColor=none;fillColor=none;align=left;verticalAlign=top;spacingLeft=4;spacingRight=4;overflow=hidden;rotatable=0;points=[[0,0.5],[1,0.5]];portConstraint=eastwest;whiteSpace=wrap;html=1;" parent="E0hig0ynKckbbGIFJYIU-1" vertex="1">
          <mxGeometry y="468" width="170" height="26" as="geometry" />
        </mxCell>
        <mxCell id="hAUUYJSyRm2__0phyNZ1-2" value="+ insumo: boolean" style="text;strokeColor=none;fillColor=none;align=left;verticalAlign=top;spacingLeft=4;spacingRight=4;overflow=hidden;rotatable=0;points=[[0,0.5],[1,0.5]];portConstraint=eastwest;whiteSpace=wrap;html=1;" vertex="1" parent="E0hig0ynKckbbGIFJYIU-1">
          <mxGeometry y="494" width="170" height="26" as="geometry" />
        </mxCell>
        <mxCell id="E0hig0ynKckbbGIFJYIU-17" value="Venda" style="swimlane;fontStyle=0;childLayout=stackLayout;horizontal=1;startSize=26;fillColor=none;horizontalStack=0;resizeParent=1;resizeParentMax=0;resizeLast=0;collapsible=1;marginBottom=0;whiteSpace=wrap;html=1;" parent="WIyWlLk6GJQsqaUBKTNV-1" vertex="1">
          <mxGeometry x="35" y="470" width="176" height="336" as="geometry">
            <mxRectangle x="-750" y="270" width="80" height="30" as="alternateBounds" />
          </mxGeometry>
        </mxCell>
        <mxCell id="E0hig0ynKckbbGIFJYIU-18" value="+ forma: venda_pagamento_id" style="text;strokeColor=none;fillColor=none;align=left;verticalAlign=top;spacingLeft=4;spacingRight=4;overflow=hidden;rotatable=0;points=[[0,0.5],[1,0.5]];portConstraint=eastwest;whiteSpace=wrap;html=1;" parent="E0hig0ynKckbbGIFJYIU-17" vertex="1">
          <mxGeometry y="26" width="176" height="24" as="geometry" />
        </mxCell>
        <mxCell id="E0hig0ynKckbbGIFJYIU-19" value="+ empresa_id: Empresa" style="text;strokeColor=none;fillColor=none;align=left;verticalAlign=top;spacingLeft=4;spacingRight=4;overflow=hidden;rotatable=0;points=[[0,0.5],[1,0.5]];portConstraint=eastwest;whiteSpace=wrap;html=1;" parent="E0hig0ynKckbbGIFJYIU-17" vertex="1">
          <mxGeometry y="50" width="176" height="26" as="geometry" />
        </mxCell>
        <mxCell id="E0hig0ynKckbbGIFJYIU-20" value="+ data: string" style="text;strokeColor=none;fillColor=none;align=left;verticalAlign=top;spacingLeft=4;spacingRight=4;overflow=hidden;rotatable=0;points=[[0,0.5],[1,0.5]];portConstraint=eastwest;whiteSpace=wrap;html=1;" parent="E0hig0ynKckbbGIFJYIU-17" vertex="1">
          <mxGeometry y="76" width="176" height="26" as="geometry" />
        </mxCell>
        <mxCell id="E0hig0ynKckbbGIFJYIU-21" value="+ cliente_id: int" style="text;strokeColor=none;fillColor=none;align=left;verticalAlign=top;spacingLeft=4;spacingRight=4;overflow=hidden;rotatable=0;points=[[0,0.5],[1,0.5]];portConstraint=eastwest;whiteSpace=wrap;html=1;" parent="E0hig0ynKckbbGIFJYIU-17" vertex="1">
          <mxGeometry y="102" width="176" height="26" as="geometry" />
        </mxCell>
        <mxCell id="E0hig0ynKckbbGIFJYIU-22" value="+ usuario_id: int" style="text;strokeColor=none;fillColor=none;align=left;verticalAlign=top;spacingLeft=4;spacingRight=4;overflow=hidden;rotatable=0;points=[[0,0.5],[1,0.5]];portConstraint=eastwest;whiteSpace=wrap;html=1;" parent="E0hig0ynKckbbGIFJYIU-17" vertex="1">
          <mxGeometry y="128" width="176" height="26" as="geometry" />
        </mxCell>
        <mxCell id="E0hig0ynKckbbGIFJYIU-23" value="+ observacao : string&amp;nbsp;" style="text;strokeColor=none;fillColor=none;align=left;verticalAlign=top;spacingLeft=4;spacingRight=4;overflow=hidden;rotatable=0;points=[[0,0.5],[1,0.5]];portConstraint=eastwest;whiteSpace=wrap;html=1;" parent="E0hig0ynKckbbGIFJYIU-17" vertex="1">
          <mxGeometry y="154" width="176" height="26" as="geometry" />
        </mxCell>
        <mxCell id="E0hig0ynKckbbGIFJYIU-24" value="+ total : string&amp;nbsp;" style="text;strokeColor=none;fillColor=none;align=left;verticalAlign=top;spacingLeft=4;spacingRight=4;overflow=hidden;rotatable=0;points=[[0,0.5],[1,0.5]];portConstraint=eastwest;whiteSpace=wrap;html=1;" parent="E0hig0ynKckbbGIFJYIU-17" vertex="1">
          <mxGeometry y="180" width="176" height="26" as="geometry" />
        </mxCell>
        <mxCell id="E0hig0ynKckbbGIFJYIU-25" value="+ subtotal: type" style="text;strokeColor=none;fillColor=none;align=left;verticalAlign=top;spacingLeft=4;spacingRight=4;overflow=hidden;rotatable=0;points=[[0,0.5],[1,0.5]];portConstraint=eastwest;whiteSpace=wrap;html=1;" parent="E0hig0ynKckbbGIFJYIU-17" vertex="1">
          <mxGeometry y="206" width="176" height="26" as="geometry" />
        </mxCell>
        <mxCell id="E0hig0ynKckbbGIFJYIU-26" value="+ desconto: type" style="text;strokeColor=none;fillColor=none;align=left;verticalAlign=top;spacingLeft=4;spacingRight=4;overflow=hidden;rotatable=0;points=[[0,0.5],[1,0.5]];portConstraint=eastwest;whiteSpace=wrap;html=1;" parent="E0hig0ynKckbbGIFJYIU-17" vertex="1">
          <mxGeometry y="232" width="176" height="26" as="geometry" />
        </mxCell>
        <mxCell id="E0hig0ynKckbbGIFJYIU-27" value="+ acrescimo: type" style="text;strokeColor=none;fillColor=none;align=left;verticalAlign=top;spacingLeft=4;spacingRight=4;overflow=hidden;rotatable=0;points=[[0,0.5],[1,0.5]];portConstraint=eastwest;whiteSpace=wrap;html=1;" parent="E0hig0ynKckbbGIFJYIU-17" vertex="1">
          <mxGeometry y="258" width="176" height="26" as="geometry" />
        </mxCell>
        <mxCell id="E0hig0ynKckbbGIFJYIU-28" value="+ situacao: type" style="text;strokeColor=none;fillColor=none;align=left;verticalAlign=top;spacingLeft=4;spacingRight=4;overflow=hidden;rotatable=0;points=[[0,0.5],[1,0.5]];portConstraint=eastwest;whiteSpace=wrap;html=1;" parent="E0hig0ynKckbbGIFJYIU-17" vertex="1">
          <mxGeometry y="284" width="176" height="26" as="geometry" />
        </mxCell>
        <mxCell id="E0hig0ynKckbbGIFJYIU-29" value="+ gerado_nf:&amp;nbsp; type" style="text;strokeColor=none;fillColor=none;align=left;verticalAlign=top;spacingLeft=4;spacingRight=4;overflow=hidden;rotatable=0;points=[[0,0.5],[1,0.5]];portConstraint=eastwest;whiteSpace=wrap;html=1;" parent="E0hig0ynKckbbGIFJYIU-17" vertex="1">
          <mxGeometry y="310" width="176" height="26" as="geometry" />
        </mxCell>
        <mxCell id="E0hig0ynKckbbGIFJYIU-30" value="Fluxo_de_caixa" style="swimlane;fontStyle=0;childLayout=stackLayout;horizontal=1;startSize=26;fillColor=none;horizontalStack=0;resizeParent=1;resizeParentMax=0;resizeLast=0;collapsible=1;marginBottom=0;whiteSpace=wrap;html=1;" parent="WIyWlLk6GJQsqaUBKTNV-1" vertex="1">
          <mxGeometry x="640" y="524" width="140" height="312" as="geometry">
            <mxRectangle x="520" y="40" width="120" height="30" as="alternateBounds" />
          </mxGeometry>
        </mxCell>
        <mxCell id="E0hig0ynKckbbGIFJYIU-31" value="+ id: int" style="text;strokeColor=none;fillColor=none;align=left;verticalAlign=top;spacingLeft=4;spacingRight=4;overflow=hidden;rotatable=0;points=[[0,0.5],[1,0.5]];portConstraint=eastwest;whiteSpace=wrap;html=1;" parent="E0hig0ynKckbbGIFJYIU-30" vertex="1">
          <mxGeometry y="26" width="140" height="26" as="geometry" />
        </mxCell>
        <mxCell id="E0hig0ynKckbbGIFJYIU-32" value="+ descricao: string" style="text;strokeColor=none;fillColor=none;align=left;verticalAlign=top;spacingLeft=4;spacingRight=4;overflow=hidden;rotatable=0;points=[[0,0.5],[1,0.5]];portConstraint=eastwest;whiteSpace=wrap;html=1;" parent="E0hig0ynKckbbGIFJYIU-30" vertex="1">
          <mxGeometry y="52" width="140" height="26" as="geometry" />
        </mxCell>
        <mxCell id="E0hig0ynKckbbGIFJYIU-33" value="+ data: string" style="text;strokeColor=none;fillColor=none;align=left;verticalAlign=top;spacingLeft=4;spacingRight=4;overflow=hidden;rotatable=0;points=[[0,0.5],[1,0.5]];portConstraint=eastwest;whiteSpace=wrap;html=1;" parent="E0hig0ynKckbbGIFJYIU-30" vertex="1">
          <mxGeometry y="78" width="140" height="26" as="geometry" />
        </mxCell>
        <mxCell id="E0hig0ynKckbbGIFJYIU-34" value="+ tipo: string" style="text;strokeColor=none;fillColor=none;align=left;verticalAlign=top;spacingLeft=4;spacingRight=4;overflow=hidden;rotatable=0;points=[[0,0.5],[1,0.5]];portConstraint=eastwest;whiteSpace=wrap;html=1;" parent="E0hig0ynKckbbGIFJYIU-30" vertex="1">
          <mxGeometry y="104" width="140" height="26" as="geometry" />
        </mxCell>
        <mxCell id="E0hig0ynKckbbGIFJYIU-35" value="+ valor: string" style="text;strokeColor=none;fillColor=none;align=left;verticalAlign=top;spacingLeft=4;spacingRight=4;overflow=hidden;rotatable=0;points=[[0,0.5],[1,0.5]];portConstraint=eastwest;whiteSpace=wrap;html=1;" parent="E0hig0ynKckbbGIFJYIU-30" vertex="1">
          <mxGeometry y="130" width="140" height="26" as="geometry" />
        </mxCell>
        <mxCell id="E0hig0ynKckbbGIFJYIU-36" value="+ caixa_id: Caixa" style="text;strokeColor=none;fillColor=none;align=left;verticalAlign=top;spacingLeft=4;spacingRight=4;overflow=hidden;rotatable=0;points=[[0,0.5],[1,0.5]];portConstraint=eastwest;whiteSpace=wrap;html=1;" parent="E0hig0ynKckbbGIFJYIU-30" vertex="1">
          <mxGeometry y="156" width="140" height="26" as="geometry" />
        </mxCell>
        <mxCell id="E0hig0ynKckbbGIFJYIU-37" value="+ usuario_id: int" style="text;strokeColor=none;fillColor=none;align=left;verticalAlign=top;spacingLeft=4;spacingRight=4;overflow=hidden;rotatable=0;points=[[0,0.5],[1,0.5]];portConstraint=eastwest;whiteSpace=wrap;html=1;" parent="E0hig0ynKckbbGIFJYIU-30" vertex="1">
          <mxGeometry y="182" width="140" height="26" as="geometry" />
        </mxCell>
        <mxCell id="E0hig0ynKckbbGIFJYIU-39" value="+ movimento_id: string" style="text;strokeColor=none;fillColor=none;align=left;verticalAlign=top;spacingLeft=4;spacingRight=4;overflow=hidden;rotatable=0;points=[[0,0.5],[1,0.5]];portConstraint=eastwest;whiteSpace=wrap;html=1;" parent="E0hig0ynKckbbGIFJYIU-30" vertex="1">
          <mxGeometry y="208" width="140" height="26" as="geometry" />
        </mxCell>
        <mxCell id="E0hig0ynKckbbGIFJYIU-40" value="+ valor_total: string" style="text;strokeColor=none;fillColor=none;align=left;verticalAlign=top;spacingLeft=4;spacingRight=4;overflow=hidden;rotatable=0;points=[[0,0.5],[1,0.5]];portConstraint=eastwest;whiteSpace=wrap;html=1;" parent="E0hig0ynKckbbGIFJYIU-30" vertex="1">
          <mxGeometry y="234" width="140" height="26" as="geometry" />
        </mxCell>
        <mxCell id="E0hig0ynKckbbGIFJYIU-41" value="+ tipo: string" style="text;strokeColor=none;fillColor=none;align=left;verticalAlign=top;spacingLeft=4;spacingRight=4;overflow=hidden;rotatable=0;points=[[0,0.5],[1,0.5]];portConstraint=eastwest;whiteSpace=wrap;html=1;" parent="E0hig0ynKckbbGIFJYIU-30" vertex="1">
          <mxGeometry y="260" width="140" height="26" as="geometry" />
        </mxCell>
        <mxCell id="E0hig0ynKckbbGIFJYIU-42" value="+ situação: string" style="text;strokeColor=none;fillColor=none;align=left;verticalAlign=top;spacingLeft=4;spacingRight=4;overflow=hidden;rotatable=0;points=[[0,0.5],[1,0.5]];portConstraint=eastwest;whiteSpace=wrap;html=1;" parent="E0hig0ynKckbbGIFJYIU-30" vertex="1">
          <mxGeometry y="286" width="140" height="26" as="geometry" />
        </mxCell>
        <mxCell id="E0hig0ynKckbbGIFJYIU-43" value="Cliente" style="swimlane;fontStyle=0;childLayout=stackLayout;horizontal=1;startSize=26;fillColor=none;horizontalStack=0;resizeParent=1;resizeParentMax=0;resizeLast=0;collapsible=1;marginBottom=0;whiteSpace=wrap;html=1;" parent="WIyWlLk6GJQsqaUBKTNV-1" vertex="1">
          <mxGeometry x="240" y="243" width="140" height="270" as="geometry" />
        </mxCell>
        <mxCell id="E0hig0ynKckbbGIFJYIU-44" value="+ id: int " style="text;strokeColor=none;fillColor=none;align=left;verticalAlign=top;spacingLeft=4;spacingRight=4;overflow=hidden;rotatable=0;points=[[0,0.5],[1,0.5]];portConstraint=eastwest;whiteSpace=wrap;html=1;" parent="E0hig0ynKckbbGIFJYIU-43" vertex="1">
          <mxGeometry y="26" width="140" height="26" as="geometry" />
        </mxCell>
        <mxCell id="E0hig0ynKckbbGIFJYIU-45" value="+ razao_social: string" style="text;strokeColor=none;fillColor=none;align=left;verticalAlign=top;spacingLeft=4;spacingRight=4;overflow=hidden;rotatable=0;points=[[0,0.5],[1,0.5]];portConstraint=eastwest;whiteSpace=wrap;html=1;" parent="E0hig0ynKckbbGIFJYIU-43" vertex="1">
          <mxGeometry y="52" width="140" height="26" as="geometry" />
        </mxCell>
        <mxCell id="E0hig0ynKckbbGIFJYIU-46" value="+ endereco: Endereco" style="text;strokeColor=none;fillColor=none;align=left;verticalAlign=top;spacingLeft=4;spacingRight=4;overflow=hidden;rotatable=0;points=[[0,0.5],[1,0.5]];portConstraint=eastwest;whiteSpace=wrap;html=1;" parent="E0hig0ynKckbbGIFJYIU-43" vertex="1">
          <mxGeometry y="78" width="140" height="26" as="geometry" />
        </mxCell>
        <mxCell id="E0hig0ynKckbbGIFJYIU-47" value="+ telefone: string" style="text;strokeColor=none;fillColor=none;align=left;verticalAlign=top;spacingLeft=4;spacingRight=4;overflow=hidden;rotatable=0;points=[[0,0.5],[1,0.5]];portConstraint=eastwest;whiteSpace=wrap;html=1;" parent="E0hig0ynKckbbGIFJYIU-43" vertex="1">
          <mxGeometry y="104" width="140" height="26" as="geometry" />
        </mxCell>
        <mxCell id="E0hig0ynKckbbGIFJYIU-48" value="+ whatsapp: string" style="text;strokeColor=none;fillColor=none;align=left;verticalAlign=top;spacingLeft=4;spacingRight=4;overflow=hidden;rotatable=0;points=[[0,0.5],[1,0.5]];portConstraint=eastwest;whiteSpace=wrap;html=1;" parent="E0hig0ynKckbbGIFJYIU-43" vertex="1">
          <mxGeometry y="130" width="140" height="26" as="geometry" />
        </mxCell>
        <mxCell id="E0hig0ynKckbbGIFJYIU-49" value="+cpf_cnpj: string" style="text;strokeColor=none;fillColor=none;align=left;verticalAlign=top;spacingLeft=4;spacingRight=4;overflow=hidden;rotatable=0;points=[[0,0.5],[1,0.5]];portConstraint=eastwest;whiteSpace=wrap;html=1;" parent="E0hig0ynKckbbGIFJYIU-43" vertex="1">
          <mxGeometry y="156" width="140" height="26" as="geometry" />
        </mxCell>
        <mxCell id="E0hig0ynKckbbGIFJYIU-50" value="+data_nascimento:string" style="text;strokeColor=none;fillColor=none;align=left;verticalAlign=top;spacingLeft=4;spacingRight=4;overflow=hidden;rotatable=0;points=[[0,0.5],[1,0.5]];portConstraint=eastwest;whiteSpace=wrap;html=1;" parent="E0hig0ynKckbbGIFJYIU-43" vertex="1">
          <mxGeometry y="182" width="140" height="28" as="geometry" />
        </mxCell>
        <mxCell id="E0hig0ynKckbbGIFJYIU-51" value="rg_ie: string" style="text;strokeColor=none;fillColor=none;align=left;verticalAlign=top;spacingLeft=4;spacingRight=4;overflow=hidden;rotatable=0;points=[[0,0.5],[1,0.5]];portConstraint=eastwest;whiteSpace=wrap;html=1;" parent="E0hig0ynKckbbGIFJYIU-43" vertex="1">
          <mxGeometry y="210" width="140" height="30" as="geometry" />
        </mxCell>
        <mxCell id="E0hig0ynKckbbGIFJYIU-53" value="+ tipo: string" style="text;strokeColor=none;fillColor=none;align=left;verticalAlign=top;spacingLeft=4;spacingRight=4;overflow=hidden;rotatable=0;points=[[0,0.5],[1,0.5]];portConstraint=eastwest;whiteSpace=wrap;html=1;" parent="E0hig0ynKckbbGIFJYIU-43" vertex="1">
          <mxGeometry y="240" width="140" height="30" as="geometry" />
        </mxCell>
        <mxCell id="E0hig0ynKckbbGIFJYIU-54" value="Funcionario" style="swimlane;fontStyle=0;childLayout=stackLayout;horizontal=1;startSize=26;fillColor=none;horizontalStack=0;resizeParent=1;resizeParentMax=0;resizeLast=0;collapsible=1;marginBottom=0;whiteSpace=wrap;html=1;" parent="WIyWlLk6GJQsqaUBKTNV-1" vertex="1">
          <mxGeometry x="35" y="190" width="150" height="260" as="geometry" />
        </mxCell>
        <mxCell id="E0hig0ynKckbbGIFJYIU-55" value="+ id: int" style="text;strokeColor=none;fillColor=none;align=left;verticalAlign=top;spacingLeft=4;spacingRight=4;overflow=hidden;rotatable=0;points=[[0,0.5],[1,0.5]];portConstraint=eastwest;whiteSpace=wrap;html=1;" parent="E0hig0ynKckbbGIFJYIU-54" vertex="1">
          <mxGeometry y="26" width="150" height="26" as="geometry" />
        </mxCell>
        <mxCell id="E0hig0ynKckbbGIFJYIU-56" value="+ nome: string" style="text;strokeColor=none;fillColor=none;align=left;verticalAlign=top;spacingLeft=4;spacingRight=4;overflow=hidden;rotatable=0;points=[[0,0.5],[1,0.5]];portConstraint=eastwest;whiteSpace=wrap;html=1;" parent="E0hig0ynKckbbGIFJYIU-54" vertex="1">
          <mxGeometry y="52" width="150" height="26" as="geometry" />
        </mxCell>
        <mxCell id="E0hig0ynKckbbGIFJYIU-57" value="+ cpf: string" style="text;strokeColor=none;fillColor=none;align=left;verticalAlign=top;spacingLeft=4;spacingRight=4;overflow=hidden;rotatable=0;points=[[0,0.5],[1,0.5]];portConstraint=eastwest;whiteSpace=wrap;html=1;" parent="E0hig0ynKckbbGIFJYIU-54" vertex="1">
          <mxGeometry y="78" width="150" height="26" as="geometry" />
        </mxCell>
        <mxCell id="E0hig0ynKckbbGIFJYIU-58" value="+ endereco: Endereco" style="text;strokeColor=none;fillColor=none;align=left;verticalAlign=top;spacingLeft=4;spacingRight=4;overflow=hidden;rotatable=0;points=[[0,0.5],[1,0.5]];portConstraint=eastwest;whiteSpace=wrap;html=1;" parent="E0hig0ynKckbbGIFJYIU-54" vertex="1">
          <mxGeometry y="104" width="150" height="26" as="geometry" />
        </mxCell>
        <mxCell id="E0hig0ynKckbbGIFJYIU-59" value="+ salario: string" style="text;strokeColor=none;fillColor=none;align=left;verticalAlign=top;spacingLeft=4;spacingRight=4;overflow=hidden;rotatable=0;points=[[0,0.5],[1,0.5]];portConstraint=eastwest;whiteSpace=wrap;html=1;" parent="E0hig0ynKckbbGIFJYIU-54" vertex="1">
          <mxGeometry y="130" width="150" height="26" as="geometry" />
        </mxCell>
        <mxCell id="E0hig0ynKckbbGIFJYIU-60" value="+ data_contratacao: string" style="text;strokeColor=none;fillColor=none;align=left;verticalAlign=top;spacingLeft=4;spacingRight=4;overflow=hidden;rotatable=0;points=[[0,0.5],[1,0.5]];portConstraint=eastwest;whiteSpace=wrap;html=1;" parent="E0hig0ynKckbbGIFJYIU-54" vertex="1">
          <mxGeometry y="156" width="150" height="26" as="geometry" />
        </mxCell>
        <mxCell id="E0hig0ynKckbbGIFJYIU-61" value="+ status: string" style="text;strokeColor=none;fillColor=none;align=left;verticalAlign=top;spacingLeft=4;spacingRight=4;overflow=hidden;rotatable=0;points=[[0,0.5],[1,0.5]];portConstraint=eastwest;whiteSpace=wrap;html=1;" parent="E0hig0ynKckbbGIFJYIU-54" vertex="1">
          <mxGeometry y="182" width="150" height="26" as="geometry" />
        </mxCell>
        <mxCell id="E0hig0ynKckbbGIFJYIU-62" value="+ setor: string" style="text;strokeColor=none;fillColor=none;align=left;verticalAlign=top;spacingLeft=4;spacingRight=4;overflow=hidden;rotatable=0;points=[[0,0.5],[1,0.5]];portConstraint=eastwest;whiteSpace=wrap;html=1;" parent="E0hig0ynKckbbGIFJYIU-54" vertex="1">
          <mxGeometry y="208" width="150" height="26" as="geometry" />
        </mxCell>
        <mxCell id="E0hig0ynKckbbGIFJYIU-63" value="+ cargo: string" style="text;strokeColor=none;fillColor=none;align=left;verticalAlign=top;spacingLeft=4;spacingRight=4;overflow=hidden;rotatable=0;points=[[0,0.5],[1,0.5]];portConstraint=eastwest;whiteSpace=wrap;html=1;" parent="E0hig0ynKckbbGIFJYIU-54" vertex="1">
          <mxGeometry y="234" width="150" height="26" as="geometry" />
        </mxCell>
        <mxCell id="E0hig0ynKckbbGIFJYIU-65" value="Conta_corrente" style="swimlane;fontStyle=0;childLayout=stackLayout;horizontal=1;startSize=26;fillColor=none;horizontalStack=0;resizeParent=1;resizeParentMax=0;resizeLast=0;collapsible=1;marginBottom=0;whiteSpace=wrap;html=1;" parent="WIyWlLk6GJQsqaUBKTNV-1" vertex="1">
          <mxGeometry x="650" y="321" width="140" height="182" as="geometry" />
        </mxCell>
        <mxCell id="E0hig0ynKckbbGIFJYIU-66" value="+ id:int" style="text;strokeColor=none;fillColor=none;align=left;verticalAlign=top;spacingLeft=4;spacingRight=4;overflow=hidden;rotatable=0;points=[[0,0.5],[1,0.5]];portConstraint=eastwest;whiteSpace=wrap;html=1;" parent="E0hig0ynKckbbGIFJYIU-65" vertex="1">
          <mxGeometry y="26" width="140" height="26" as="geometry" />
        </mxCell>
        <mxCell id="E0hig0ynKckbbGIFJYIU-67" value="+ numero_conta: string" style="text;strokeColor=none;fillColor=none;align=left;verticalAlign=top;spacingLeft=4;spacingRight=4;overflow=hidden;rotatable=0;points=[[0,0.5],[1,0.5]];portConstraint=eastwest;whiteSpace=wrap;html=1;" parent="E0hig0ynKckbbGIFJYIU-65" vertex="1">
          <mxGeometry y="52" width="140" height="26" as="geometry" />
        </mxCell>
        <mxCell id="E0hig0ynKckbbGIFJYIU-68" value="+ descricao: string" style="text;strokeColor=none;fillColor=none;align=left;verticalAlign=top;spacingLeft=4;spacingRight=4;overflow=hidden;rotatable=0;points=[[0,0.5],[1,0.5]];portConstraint=eastwest;whiteSpace=wrap;html=1;" parent="E0hig0ynKckbbGIFJYIU-65" vertex="1">
          <mxGeometry y="78" width="140" height="26" as="geometry" />
        </mxCell>
        <mxCell id="E0hig0ynKckbbGIFJYIU-69" value="+ banco_id: string" style="text;strokeColor=none;fillColor=none;align=left;verticalAlign=top;spacingLeft=4;spacingRight=4;overflow=hidden;rotatable=0;points=[[0,0.5],[1,0.5]];portConstraint=eastwest;whiteSpace=wrap;html=1;" parent="E0hig0ynKckbbGIFJYIU-65" vertex="1">
          <mxGeometry y="104" width="140" height="26" as="geometry" />
        </mxCell>
        <mxCell id="E0hig0ynKckbbGIFJYIU-70" value="+ titular: string" style="text;strokeColor=none;fillColor=none;align=left;verticalAlign=top;spacingLeft=4;spacingRight=4;overflow=hidden;rotatable=0;points=[[0,0.5],[1,0.5]];portConstraint=eastwest;whiteSpace=wrap;html=1;" parent="E0hig0ynKckbbGIFJYIU-65" vertex="1">
          <mxGeometry y="130" width="140" height="26" as="geometry" />
        </mxCell>
        <mxCell id="E0hig0ynKckbbGIFJYIU-71" value="+ saldo: string" style="text;strokeColor=none;fillColor=none;align=left;verticalAlign=top;spacingLeft=4;spacingRight=4;overflow=hidden;rotatable=0;points=[[0,0.5],[1,0.5]];portConstraint=eastwest;whiteSpace=wrap;html=1;" parent="E0hig0ynKckbbGIFJYIU-65" vertex="1">
          <mxGeometry y="156" width="140" height="26" as="geometry" />
        </mxCell>
        <mxCell id="E0hig0ynKckbbGIFJYIU-72" value="Caixa" style="swimlane;fontStyle=0;childLayout=stackLayout;horizontal=1;startSize=26;fillColor=none;horizontalStack=0;resizeParent=1;resizeParentMax=0;resizeLast=0;collapsible=1;marginBottom=0;whiteSpace=wrap;html=1;" parent="WIyWlLk6GJQsqaUBKTNV-1" vertex="1">
          <mxGeometry x="435" y="235" width="170" height="286" as="geometry" />
        </mxCell>
        <mxCell id="E0hig0ynKckbbGIFJYIU-73" value="+ id: int" style="text;strokeColor=none;fillColor=none;align=left;verticalAlign=top;spacingLeft=4;spacingRight=4;overflow=hidden;rotatable=0;points=[[0,0.5],[1,0.5]];portConstraint=eastwest;whiteSpace=wrap;html=1;" parent="E0hig0ynKckbbGIFJYIU-72" vertex="1">
          <mxGeometry y="26" width="170" height="26" as="geometry" />
        </mxCell>
        <mxCell id="E0hig0ynKckbbGIFJYIU-74" value="+ descricao: string" style="text;strokeColor=none;fillColor=none;align=left;verticalAlign=top;spacingLeft=4;spacingRight=4;overflow=hidden;rotatable=0;points=[[0,0.5],[1,0.5]];portConstraint=eastwest;whiteSpace=wrap;html=1;" parent="E0hig0ynKckbbGIFJYIU-72" vertex="1">
          <mxGeometry y="52" width="170" height="26" as="geometry" />
        </mxCell>
        <mxCell id="E0hig0ynKckbbGIFJYIU-75" value="+ situacao: string" style="text;strokeColor=none;fillColor=none;align=left;verticalAlign=top;spacingLeft=4;spacingRight=4;overflow=hidden;rotatable=0;points=[[0,0.5],[1,0.5]];portConstraint=eastwest;whiteSpace=wrap;html=1;" parent="E0hig0ynKckbbGIFJYIU-72" vertex="1">
          <mxGeometry y="78" width="170" height="26" as="geometry" />
        </mxCell>
        <mxCell id="E0hig0ynKckbbGIFJYIU-76" value="+ data_abertura: string" style="text;strokeColor=none;fillColor=none;align=left;verticalAlign=top;spacingLeft=4;spacingRight=4;overflow=hidden;rotatable=0;points=[[0,0.5],[1,0.5]];portConstraint=eastwest;whiteSpace=wrap;html=1;" parent="E0hig0ynKckbbGIFJYIU-72" vertex="1">
          <mxGeometry y="104" width="170" height="26" as="geometry" />
        </mxCell>
        <mxCell id="E0hig0ynKckbbGIFJYIU-77" value="+ data_fechamento: string" style="text;strokeColor=none;fillColor=none;align=left;verticalAlign=top;spacingLeft=4;spacingRight=4;overflow=hidden;rotatable=0;points=[[0,0.5],[1,0.5]];portConstraint=eastwest;whiteSpace=wrap;html=1;" parent="E0hig0ynKckbbGIFJYIU-72" vertex="1">
          <mxGeometry y="130" width="170" height="26" as="geometry" />
        </mxCell>
        <mxCell id="E0hig0ynKckbbGIFJYIU-78" value="+ valor_inicial: string" style="text;strokeColor=none;fillColor=none;align=left;verticalAlign=top;spacingLeft=4;spacingRight=4;overflow=hidden;rotatable=0;points=[[0,0.5],[1,0.5]];portConstraint=eastwest;whiteSpace=wrap;html=1;" parent="E0hig0ynKckbbGIFJYIU-72" vertex="1">
          <mxGeometry y="156" width="170" height="26" as="geometry" />
        </mxCell>
        <mxCell id="E0hig0ynKckbbGIFJYIU-79" value="+ valor_final: string" style="text;strokeColor=none;fillColor=none;align=left;verticalAlign=top;spacingLeft=4;spacingRight=4;overflow=hidden;rotatable=0;points=[[0,0.5],[1,0.5]];portConstraint=eastwest;whiteSpace=wrap;html=1;" parent="E0hig0ynKckbbGIFJYIU-72" vertex="1">
          <mxGeometry y="182" width="170" height="26" as="geometry" />
        </mxCell>
        <mxCell id="E0hig0ynKckbbGIFJYIU-80" value="+ usuario_abertura_id: int" style="text;strokeColor=none;fillColor=none;align=left;verticalAlign=top;spacingLeft=4;spacingRight=4;overflow=hidden;rotatable=0;points=[[0,0.5],[1,0.5]];portConstraint=eastwest;whiteSpace=wrap;html=1;" parent="E0hig0ynKckbbGIFJYIU-72" vertex="1">
          <mxGeometry y="208" width="170" height="26" as="geometry" />
        </mxCell>
        <mxCell id="E0hig0ynKckbbGIFJYIU-81" value="+ usuario_fechamento_id: int" style="text;strokeColor=none;fillColor=none;align=left;verticalAlign=top;spacingLeft=4;spacingRight=4;overflow=hidden;rotatable=0;points=[[0,0.5],[1,0.5]];portConstraint=eastwest;whiteSpace=wrap;html=1;" parent="E0hig0ynKckbbGIFJYIU-72" vertex="1">
          <mxGeometry y="234" width="170" height="26" as="geometry" />
        </mxCell>
        <mxCell id="E0hig0ynKckbbGIFJYIU-82" value="+ observacoes: string&amp;nbsp;" style="text;strokeColor=none;fillColor=none;align=left;verticalAlign=top;spacingLeft=4;spacingRight=4;overflow=hidden;rotatable=0;points=[[0,0.5],[1,0.5]];portConstraint=eastwest;whiteSpace=wrap;html=1;" parent="E0hig0ynKckbbGIFJYIU-72" vertex="1">
          <mxGeometry y="260" width="170" height="26" as="geometry" />
        </mxCell>
        <mxCell id="E0hig0ynKckbbGIFJYIU-84" value="Banco" style="swimlane;fontStyle=0;childLayout=stackLayout;horizontal=1;startSize=26;fillColor=none;horizontalStack=0;resizeParent=1;resizeParentMax=0;resizeLast=0;collapsible=1;marginBottom=0;whiteSpace=wrap;html=1;" parent="WIyWlLk6GJQsqaUBKTNV-1" vertex="1">
          <mxGeometry x="440" y="1200" width="140" height="354" as="geometry" />
        </mxCell>
        <mxCell id="E0hig0ynKckbbGIFJYIU-85" value="+ id: int" style="text;strokeColor=none;fillColor=none;align=left;verticalAlign=top;spacingLeft=4;spacingRight=4;overflow=hidden;rotatable=0;points=[[0,0.5],[1,0.5]];portConstraint=eastwest;whiteSpace=wrap;html=1;" parent="E0hig0ynKckbbGIFJYIU-84" vertex="1">
          <mxGeometry y="26" width="140" height="26" as="geometry" />
        </mxCell>
        <mxCell id="E0hig0ynKckbbGIFJYIU-86" value="+ descricao: string" style="text;strokeColor=none;fillColor=none;align=left;verticalAlign=top;spacingLeft=4;spacingRight=4;overflow=hidden;rotatable=0;points=[[0,0.5],[1,0.5]];portConstraint=eastwest;whiteSpace=wrap;html=1;" parent="E0hig0ynKckbbGIFJYIU-84" vertex="1">
          <mxGeometry y="52" width="140" height="26" as="geometry" />
        </mxCell>
        <mxCell id="E0hig0ynKckbbGIFJYIU-87" value="+ agencia: string" style="text;strokeColor=none;fillColor=none;align=left;verticalAlign=top;spacingLeft=4;spacingRight=4;overflow=hidden;rotatable=0;points=[[0,0.5],[1,0.5]];portConstraint=eastwest;whiteSpace=wrap;html=1;" parent="E0hig0ynKckbbGIFJYIU-84" vertex="1">
          <mxGeometry y="78" width="140" height="26" as="geometry" />
        </mxCell>
        <mxCell id="E0hig0ynKckbbGIFJYIU-88" value="+ numero_banco: string" style="text;strokeColor=none;fillColor=none;align=left;verticalAlign=top;spacingLeft=4;spacingRight=4;overflow=hidden;rotatable=0;points=[[0,0.5],[1,0.5]];portConstraint=eastwest;whiteSpace=wrap;html=1;" parent="E0hig0ynKckbbGIFJYIU-84" vertex="1">
          <mxGeometry y="104" width="140" height="26" as="geometry" />
        </mxCell>
        <mxCell id="E0hig0ynKckbbGIFJYIU-89" value="+ numero_conta: string" style="text;strokeColor=none;fillColor=none;align=left;verticalAlign=top;spacingLeft=4;spacingRight=4;overflow=hidden;rotatable=0;points=[[0,0.5],[1,0.5]];portConstraint=eastwest;whiteSpace=wrap;html=1;" parent="E0hig0ynKckbbGIFJYIU-84" vertex="1">
          <mxGeometry y="130" width="140" height="26" as="geometry" />
        </mxCell>
        <mxCell id="E0hig0ynKckbbGIFJYIU-90" value="+ digito_numero: string" style="text;strokeColor=none;fillColor=none;align=left;verticalAlign=top;spacingLeft=4;spacingRight=4;overflow=hidden;rotatable=0;points=[[0,0.5],[1,0.5]];portConstraint=eastwest;whiteSpace=wrap;html=1;" parent="E0hig0ynKckbbGIFJYIU-84" vertex="1">
          <mxGeometry y="156" width="140" height="26" as="geometry" />
        </mxCell>
        <mxCell id="E0hig0ynKckbbGIFJYIU-91" value="+ digito_agencia: string" style="text;strokeColor=none;fillColor=none;align=left;verticalAlign=top;spacingLeft=4;spacingRight=4;overflow=hidden;rotatable=0;points=[[0,0.5],[1,0.5]];portConstraint=eastwest;whiteSpace=wrap;html=1;" parent="E0hig0ynKckbbGIFJYIU-84" vertex="1">
          <mxGeometry y="182" width="140" height="26" as="geometry" />
        </mxCell>
        <mxCell id="E0hig0ynKckbbGIFJYIU-92" value="+ digito_conta: string" style="text;strokeColor=none;fillColor=none;align=left;verticalAlign=top;spacingLeft=4;spacingRight=4;overflow=hidden;rotatable=0;points=[[0,0.5],[1,0.5]];portConstraint=eastwest;whiteSpace=wrap;html=1;" parent="E0hig0ynKckbbGIFJYIU-84" vertex="1">
          <mxGeometry y="208" width="140" height="26" as="geometry" />
        </mxCell>
        <mxCell id="E0hig0ynKckbbGIFJYIU-93" value="+ digito_: string" style="text;strokeColor=none;fillColor=none;align=left;verticalAlign=top;spacingLeft=4;spacingRight=4;overflow=hidden;rotatable=0;points=[[0,0.5],[1,0.5]];portConstraint=eastwest;whiteSpace=wrap;html=1;" parent="E0hig0ynKckbbGIFJYIU-84" vertex="1">
          <mxGeometry y="234" width="140" height="26" as="geometry" />
        </mxCell>
        <mxCell id="E0hig0ynKckbbGIFJYIU-94" value="+ agencia_UF: string" style="text;strokeColor=none;fillColor=none;align=left;verticalAlign=top;spacingLeft=4;spacingRight=4;overflow=hidden;rotatable=0;points=[[0,0.5],[1,0.5]];portConstraint=eastwest;whiteSpace=wrap;html=1;" parent="E0hig0ynKckbbGIFJYIU-84" vertex="1">
          <mxGeometry y="260" width="140" height="26" as="geometry" />
        </mxCell>
        <mxCell id="E0hig0ynKckbbGIFJYIU-95" value="+ agencia_cidade: string" style="text;strokeColor=none;fillColor=none;align=left;verticalAlign=top;spacingLeft=4;spacingRight=4;overflow=hidden;rotatable=0;points=[[0,0.5],[1,0.5]];portConstraint=eastwest;whiteSpace=wrap;html=1;" parent="E0hig0ynKckbbGIFJYIU-84" vertex="1">
          <mxGeometry y="286" width="140" height="34" as="geometry" />
        </mxCell>
        <mxCell id="E0hig0ynKckbbGIFJYIU-96" value="+ taxa: string" style="text;strokeColor=none;fillColor=none;align=left;verticalAlign=top;spacingLeft=4;spacingRight=4;overflow=hidden;rotatable=0;points=[[0,0.5],[1,0.5]];portConstraint=eastwest;whiteSpace=wrap;html=1;" parent="E0hig0ynKckbbGIFJYIU-84" vertex="1">
          <mxGeometry y="320" width="140" height="34" as="geometry" />
        </mxCell>
        <mxCell id="E0hig0ynKckbbGIFJYIU-97" value="Nota_fiscal" style="swimlane;fontStyle=0;childLayout=stackLayout;horizontal=1;startSize=26;fillColor=none;horizontalStack=0;resizeParent=1;resizeParentMax=0;resizeLast=0;collapsible=1;marginBottom=0;whiteSpace=wrap;html=1;" parent="WIyWlLk6GJQsqaUBKTNV-1" vertex="1">
          <mxGeometry x="36" y="1200" width="180" height="760" as="geometry" />
        </mxCell>
        <mxCell id="E0hig0ynKckbbGIFJYIU-98" value="+ id:int" style="text;strokeColor=none;fillColor=none;align=left;verticalAlign=top;spacingLeft=4;spacingRight=4;overflow=hidden;rotatable=0;points=[[0,0.5],[1,0.5]];portConstraint=eastwest;whiteSpace=wrap;html=1;" parent="E0hig0ynKckbbGIFJYIU-97" vertex="1">
          <mxGeometry y="26" width="180" height="26" as="geometry" />
        </mxCell>
        <mxCell id="E0hig0ynKckbbGIFJYIU-99" value="+ cliente_id: Cliente" style="text;strokeColor=none;fillColor=none;align=left;verticalAlign=top;spacingLeft=4;spacingRight=4;overflow=hidden;rotatable=0;points=[[0,0.5],[1,0.5]];portConstraint=eastwest;whiteSpace=wrap;html=1;" parent="E0hig0ynKckbbGIFJYIU-97" vertex="1">
          <mxGeometry y="52" width="180" height="26" as="geometry" />
        </mxCell>
        <mxCell id="E0hig0ynKckbbGIFJYIU-100" value="+ mcm: string" style="text;strokeColor=none;fillColor=none;align=left;verticalAlign=top;spacingLeft=4;spacingRight=4;overflow=hidden;rotatable=0;points=[[0,0.5],[1,0.5]];portConstraint=eastwest;whiteSpace=wrap;html=1;" parent="E0hig0ynKckbbGIFJYIU-97" vertex="1">
          <mxGeometry y="78" width="180" height="26" as="geometry" />
        </mxCell>
        <mxCell id="E0hig0ynKckbbGIFJYIU-101" value="+ cfop:string" style="text;strokeColor=none;fillColor=none;align=left;verticalAlign=top;spacingLeft=4;spacingRight=4;overflow=hidden;rotatable=0;points=[[0,0.5],[1,0.5]];portConstraint=eastwest;whiteSpace=wrap;html=1;" parent="E0hig0ynKckbbGIFJYIU-97" vertex="1">
          <mxGeometry y="104" width="180" height="26" as="geometry" />
        </mxCell>
        <mxCell id="E0hig0ynKckbbGIFJYIU-102" value="+ usuario:id" style="text;strokeColor=none;fillColor=none;align=left;verticalAlign=top;spacingLeft=4;spacingRight=4;overflow=hidden;rotatable=0;points=[[0,0.5],[1,0.5]];portConstraint=eastwest;whiteSpace=wrap;html=1;" parent="E0hig0ynKckbbGIFJYIU-97" vertex="1">
          <mxGeometry y="130" width="180" height="26" as="geometry" />
        </mxCell>
        <mxCell id="E0hig0ynKckbbGIFJYIU-103" value="+ data: string" style="text;strokeColor=none;fillColor=none;align=left;verticalAlign=top;spacingLeft=4;spacingRight=4;overflow=hidden;rotatable=0;points=[[0,0.5],[1,0.5]];portConstraint=eastwest;whiteSpace=wrap;html=1;" parent="E0hig0ynKckbbGIFJYIU-97" vertex="1">
          <mxGeometry y="156" width="180" height="26" as="geometry" />
        </mxCell>
        <mxCell id="E0hig0ynKckbbGIFJYIU-104" value="+ empresa_id: Empresa" style="text;strokeColor=none;fillColor=none;align=left;verticalAlign=top;spacingLeft=4;spacingRight=4;overflow=hidden;rotatable=0;points=[[0,0.5],[1,0.5]];portConstraint=eastwest;whiteSpace=wrap;html=1;" parent="E0hig0ynKckbbGIFJYIU-97" vertex="1">
          <mxGeometry y="182" width="180" height="26" as="geometry" />
        </mxCell>
        <mxCell id="E0hig0ynKckbbGIFJYIU-105" value="+ chave: string" style="text;strokeColor=none;fillColor=none;align=left;verticalAlign=top;spacingLeft=4;spacingRight=4;overflow=hidden;rotatable=0;points=[[0,0.5],[1,0.5]];portConstraint=eastwest;whiteSpace=wrap;html=1;" parent="E0hig0ynKckbbGIFJYIU-97" vertex="1">
          <mxGeometry y="208" width="180" height="26" as="geometry" />
        </mxCell>
        <mxCell id="E0hig0ynKckbbGIFJYIU-106" value="+ numero: string" style="text;strokeColor=none;fillColor=none;align=left;verticalAlign=top;spacingLeft=4;spacingRight=4;overflow=hidden;rotatable=0;points=[[0,0.5],[1,0.5]];portConstraint=eastwest;whiteSpace=wrap;html=1;" parent="E0hig0ynKckbbGIFJYIU-97" vertex="1">
          <mxGeometry y="234" width="180" height="26" as="geometry" />
        </mxCell>
        <mxCell id="E0hig0ynKckbbGIFJYIU-107" value="+ serie: string" style="text;strokeColor=none;fillColor=none;align=left;verticalAlign=top;spacingLeft=4;spacingRight=4;overflow=hidden;rotatable=0;points=[[0,0.5],[1,0.5]];portConstraint=eastwest;whiteSpace=wrap;html=1;" parent="E0hig0ynKckbbGIFJYIU-97" vertex="1">
          <mxGeometry y="260" width="180" height="26" as="geometry" />
        </mxCell>
        <mxCell id="E0hig0ynKckbbGIFJYIU-108" value="+ observacoes: string" style="text;strokeColor=none;fillColor=none;align=left;verticalAlign=top;spacingLeft=4;spacingRight=4;overflow=hidden;rotatable=0;points=[[0,0.5],[1,0.5]];portConstraint=eastwest;whiteSpace=wrap;html=1;" parent="E0hig0ynKckbbGIFJYIU-97" vertex="1">
          <mxGeometry y="286" width="180" height="26" as="geometry" />
        </mxCell>
        <mxCell id="E0hig0ynKckbbGIFJYIU-109" value="+ info_complementares: string" style="text;strokeColor=none;fillColor=none;align=left;verticalAlign=top;spacingLeft=4;spacingRight=4;overflow=hidden;rotatable=0;points=[[0,0.5],[1,0.5]];portConstraint=eastwest;whiteSpace=wrap;html=1;" parent="E0hig0ynKckbbGIFJYIU-97" vertex="1">
          <mxGeometry y="312" width="180" height="28" as="geometry" />
        </mxCell>
        <mxCell id="E0hig0ynKckbbGIFJYIU-110" value="+ peso_liquido: string" style="text;strokeColor=none;fillColor=none;align=left;verticalAlign=top;spacingLeft=4;spacingRight=4;overflow=hidden;rotatable=0;points=[[0,0.5],[1,0.5]];portConstraint=eastwest;whiteSpace=wrap;html=1;" parent="E0hig0ynKckbbGIFJYIU-97" vertex="1">
          <mxGeometry y="340" width="180" height="30" as="geometry" />
        </mxCell>
        <mxCell id="E0hig0ynKckbbGIFJYIU-111" value="+ peso_bruto: string" style="text;strokeColor=none;fillColor=none;align=left;verticalAlign=top;spacingLeft=4;spacingRight=4;overflow=hidden;rotatable=0;points=[[0,0.5],[1,0.5]];portConstraint=eastwest;whiteSpace=wrap;html=1;" parent="E0hig0ynKckbbGIFJYIU-97" vertex="1">
          <mxGeometry y="370" width="180" height="30" as="geometry" />
        </mxCell>
        <mxCell id="E0hig0ynKckbbGIFJYIU-112" value="+ pt_frete: string" style="text;strokeColor=none;fillColor=none;align=left;verticalAlign=top;spacingLeft=4;spacingRight=4;overflow=hidden;rotatable=0;points=[[0,0.5],[1,0.5]];portConstraint=eastwest;whiteSpace=wrap;html=1;" parent="E0hig0ynKckbbGIFJYIU-97" vertex="1">
          <mxGeometry y="400" width="180" height="30" as="geometry" />
        </mxCell>
        <mxCell id="E0hig0ynKckbbGIFJYIU-113" value="+ pt_transporte: string" style="text;strokeColor=none;fillColor=none;align=left;verticalAlign=top;spacingLeft=4;spacingRight=4;overflow=hidden;rotatable=0;points=[[0,0.5],[1,0.5]];portConstraint=eastwest;whiteSpace=wrap;html=1;" parent="E0hig0ynKckbbGIFJYIU-97" vertex="1">
          <mxGeometry y="430" width="180" height="30" as="geometry" />
        </mxCell>
        <mxCell id="E0hig0ynKckbbGIFJYIU-114" value="+ pt_nota: string" style="text;strokeColor=none;fillColor=none;align=left;verticalAlign=top;spacingLeft=4;spacingRight=4;overflow=hidden;rotatable=0;points=[[0,0.5],[1,0.5]];portConstraint=eastwest;whiteSpace=wrap;html=1;" parent="E0hig0ynKckbbGIFJYIU-97" vertex="1">
          <mxGeometry y="460" width="180" height="30" as="geometry" />
        </mxCell>
        <mxCell id="E0hig0ynKckbbGIFJYIU-115" value="+ nfe_referenciavel: string" style="text;strokeColor=none;fillColor=none;align=left;verticalAlign=top;spacingLeft=4;spacingRight=4;overflow=hidden;rotatable=0;points=[[0,0.5],[1,0.5]];portConstraint=eastwest;whiteSpace=wrap;html=1;" parent="E0hig0ynKckbbGIFJYIU-97" vertex="1">
          <mxGeometry y="490" width="180" height="30" as="geometry" />
        </mxCell>
        <mxCell id="E0hig0ynKckbbGIFJYIU-116" value="+ total_produtos: string" style="text;strokeColor=none;fillColor=none;align=left;verticalAlign=top;spacingLeft=4;spacingRight=4;overflow=hidden;rotatable=0;points=[[0,0.5],[1,0.5]];portConstraint=eastwest;whiteSpace=wrap;html=1;" parent="E0hig0ynKckbbGIFJYIU-97" vertex="1">
          <mxGeometry y="520" width="180" height="30" as="geometry" />
        </mxCell>
        <mxCell id="E0hig0ynKckbbGIFJYIU-117" value="+ total_notas: string" style="text;strokeColor=none;fillColor=none;align=left;verticalAlign=top;spacingLeft=4;spacingRight=4;overflow=hidden;rotatable=0;points=[[0,0.5],[1,0.5]];portConstraint=eastwest;whiteSpace=wrap;html=1;" parent="E0hig0ynKckbbGIFJYIU-97" vertex="1">
          <mxGeometry y="550" width="180" height="30" as="geometry" />
        </mxCell>
        <mxCell id="E0hig0ynKckbbGIFJYIU-118" value="+ total_desconto: string" style="text;strokeColor=none;fillColor=none;align=left;verticalAlign=top;spacingLeft=4;spacingRight=4;overflow=hidden;rotatable=0;points=[[0,0.5],[1,0.5]];portConstraint=eastwest;whiteSpace=wrap;html=1;" parent="E0hig0ynKckbbGIFJYIU-97" vertex="1">
          <mxGeometry y="580" width="180" height="30" as="geometry" />
        </mxCell>
        <mxCell id="E0hig0ynKckbbGIFJYIU-119" value="+ outras_despesas: string" style="text;strokeColor=none;fillColor=none;align=left;verticalAlign=top;spacingLeft=4;spacingRight=4;overflow=hidden;rotatable=0;points=[[0,0.5],[1,0.5]];portConstraint=eastwest;whiteSpace=wrap;html=1;" parent="E0hig0ynKckbbGIFJYIU-97" vertex="1">
          <mxGeometry y="610" width="180" height="30" as="geometry" />
        </mxCell>
        <mxCell id="E0hig0ynKckbbGIFJYIU-120" value="+ base_ICMS:string" style="text;strokeColor=none;fillColor=none;align=left;verticalAlign=top;spacingLeft=4;spacingRight=4;overflow=hidden;rotatable=0;points=[[0,0.5],[1,0.5]];portConstraint=eastwest;whiteSpace=wrap;html=1;" parent="E0hig0ynKckbbGIFJYIU-97" vertex="1">
          <mxGeometry y="640" width="180" height="30" as="geometry" />
        </mxCell>
        <mxCell id="E0hig0ynKckbbGIFJYIU-121" value="+ vICMS:string" style="text;strokeColor=none;fillColor=none;align=left;verticalAlign=top;spacingLeft=4;spacingRight=4;overflow=hidden;rotatable=0;points=[[0,0.5],[1,0.5]];portConstraint=eastwest;whiteSpace=wrap;html=1;" parent="E0hig0ynKckbbGIFJYIU-97" vertex="1">
          <mxGeometry y="670" width="180" height="30" as="geometry" />
        </mxCell>
        <mxCell id="E0hig0ynKckbbGIFJYIU-122" value="+ base_ST: string" style="text;strokeColor=none;fillColor=none;align=left;verticalAlign=top;spacingLeft=4;spacingRight=4;overflow=hidden;rotatable=0;points=[[0,0.5],[1,0.5]];portConstraint=eastwest;whiteSpace=wrap;html=1;" parent="E0hig0ynKckbbGIFJYIU-97" vertex="1">
          <mxGeometry y="700" width="180" height="30" as="geometry" />
        </mxCell>
        <mxCell id="E0hig0ynKckbbGIFJYIU-123" value="+ vST: string" style="text;strokeColor=none;fillColor=none;align=left;verticalAlign=top;spacingLeft=4;spacingRight=4;overflow=hidden;rotatable=0;points=[[0,0.5],[1,0.5]];portConstraint=eastwest;whiteSpace=wrap;html=1;" parent="E0hig0ynKckbbGIFJYIU-97" vertex="1">
          <mxGeometry y="730" width="180" height="30" as="geometry" />
        </mxCell>
        <mxCell id="E0hig0ynKckbbGIFJYIU-124" value="&lt;span style=&quot;font-weight: normal;&quot;&gt;Usuario&lt;/span&gt;" style="swimlane;fontStyle=1;align=center;verticalAlign=top;childLayout=stackLayout;horizontal=1;startSize=26;horizontalStack=0;resizeParent=1;resizeParentMax=0;resizeLast=0;collapsible=1;marginBottom=0;whiteSpace=wrap;html=1;" parent="WIyWlLk6GJQsqaUBKTNV-1" vertex="1">
          <mxGeometry x="40" y="40" width="130" height="130" as="geometry" />
        </mxCell>
        <mxCell id="E0hig0ynKckbbGIFJYIU-125" value="+ nome: string" style="text;strokeColor=none;fillColor=none;align=left;verticalAlign=top;spacingLeft=4;spacingRight=4;overflow=hidden;rotatable=0;points=[[0,0.5],[1,0.5]];portConstraint=eastwest;whiteSpace=wrap;html=1;" parent="E0hig0ynKckbbGIFJYIU-124" vertex="1">
          <mxGeometry y="26" width="130" height="26" as="geometry" />
        </mxCell>
        <mxCell id="E0hig0ynKckbbGIFJYIU-126" value="+ login: string" style="text;strokeColor=none;fillColor=none;align=left;verticalAlign=top;spacingLeft=4;spacingRight=4;overflow=hidden;rotatable=0;points=[[0,0.5],[1,0.5]];portConstraint=eastwest;whiteSpace=wrap;html=1;" parent="E0hig0ynKckbbGIFJYIU-124" vertex="1">
          <mxGeometry y="52" width="130" height="26" as="geometry" />
        </mxCell>
        <mxCell id="E0hig0ynKckbbGIFJYIU-127" value="+ password: string" style="text;strokeColor=none;fillColor=none;align=left;verticalAlign=top;spacingLeft=4;spacingRight=4;overflow=hidden;rotatable=0;points=[[0,0.5],[1,0.5]];portConstraint=eastwest;whiteSpace=wrap;html=1;" parent="E0hig0ynKckbbGIFJYIU-124" vertex="1">
          <mxGeometry y="78" width="130" height="26" as="geometry" />
        </mxCell>
        <mxCell id="E0hig0ynKckbbGIFJYIU-128" value="+ tipo_usuario: string" style="text;strokeColor=none;fillColor=none;align=left;verticalAlign=top;spacingLeft=4;spacingRight=4;overflow=hidden;rotatable=0;points=[[0,0.5],[1,0.5]];portConstraint=eastwest;whiteSpace=wrap;html=1;" parent="E0hig0ynKckbbGIFJYIU-124" vertex="1">
          <mxGeometry y="104" width="130" height="26" as="geometry" />
        </mxCell>
        <mxCell id="E0hig0ynKckbbGIFJYIU-130" value="Nota_fiscal_item" style="swimlane;fontStyle=0;childLayout=stackLayout;horizontal=1;startSize=26;fillColor=none;horizontalStack=0;resizeParent=1;resizeParentMax=0;resizeLast=0;collapsible=1;marginBottom=0;whiteSpace=wrap;html=1;" parent="WIyWlLk6GJQsqaUBKTNV-1" vertex="1">
          <mxGeometry x="260" y="1200" width="140" height="416" as="geometry" />
        </mxCell>
        <mxCell id="E0hig0ynKckbbGIFJYIU-131" value="+ id: int" style="text;strokeColor=none;fillColor=none;align=left;verticalAlign=top;spacingLeft=4;spacingRight=4;overflow=hidden;rotatable=0;points=[[0,0.5],[1,0.5]];portConstraint=eastwest;whiteSpace=wrap;html=1;" parent="E0hig0ynKckbbGIFJYIU-130" vertex="1">
          <mxGeometry y="26" width="140" height="26" as="geometry" />
        </mxCell>
        <mxCell id="E0hig0ynKckbbGIFJYIU-132" value="+ nota_fiscal_id: int" style="text;strokeColor=none;fillColor=none;align=left;verticalAlign=top;spacingLeft=4;spacingRight=4;overflow=hidden;rotatable=0;points=[[0,0.5],[1,0.5]];portConstraint=eastwest;whiteSpace=wrap;html=1;" parent="E0hig0ynKckbbGIFJYIU-130" vertex="1">
          <mxGeometry y="52" width="140" height="26" as="geometry" />
        </mxCell>
        <mxCell id="E0hig0ynKckbbGIFJYIU-133" value="+ produto_id: int" style="text;strokeColor=none;fillColor=none;align=left;verticalAlign=top;spacingLeft=4;spacingRight=4;overflow=hidden;rotatable=0;points=[[0,0.5],[1,0.5]];portConstraint=eastwest;whiteSpace=wrap;html=1;" parent="E0hig0ynKckbbGIFJYIU-130" vertex="1">
          <mxGeometry y="78" width="140" height="26" as="geometry" />
        </mxCell>
        <mxCell id="E0hig0ynKckbbGIFJYIU-134" value="+ quantidade: string" style="text;strokeColor=none;fillColor=none;align=left;verticalAlign=top;spacingLeft=4;spacingRight=4;overflow=hidden;rotatable=0;points=[[0,0.5],[1,0.5]];portConstraint=eastwest;whiteSpace=wrap;html=1;" parent="E0hig0ynKckbbGIFJYIU-130" vertex="1">
          <mxGeometry y="104" width="140" height="26" as="geometry" />
        </mxCell>
        <mxCell id="E0hig0ynKckbbGIFJYIU-135" value="+v_unitario: string" style="text;strokeColor=none;fillColor=none;align=left;verticalAlign=top;spacingLeft=4;spacingRight=4;overflow=hidden;rotatable=0;points=[[0,0.5],[1,0.5]];portConstraint=eastwest;whiteSpace=wrap;html=1;" parent="E0hig0ynKckbbGIFJYIU-130" vertex="1">
          <mxGeometry y="130" width="140" height="26" as="geometry" />
        </mxCell>
        <mxCell id="E0hig0ynKckbbGIFJYIU-136" value="+desconto: string" style="text;strokeColor=none;fillColor=none;align=left;verticalAlign=top;spacingLeft=4;spacingRight=4;overflow=hidden;rotatable=0;points=[[0,0.5],[1,0.5]];portConstraint=eastwest;whiteSpace=wrap;html=1;" parent="E0hig0ynKckbbGIFJYIU-130" vertex="1">
          <mxGeometry y="156" width="140" height="26" as="geometry" />
        </mxCell>
        <mxCell id="E0hig0ynKckbbGIFJYIU-137" value="+subtotal: string" style="text;strokeColor=none;fillColor=none;align=left;verticalAlign=top;spacingLeft=4;spacingRight=4;overflow=hidden;rotatable=0;points=[[0,0.5],[1,0.5]];portConstraint=eastwest;whiteSpace=wrap;html=1;" parent="E0hig0ynKckbbGIFJYIU-130" vertex="1">
          <mxGeometry y="182" width="140" height="26" as="geometry" />
        </mxCell>
        <mxCell id="E0hig0ynKckbbGIFJYIU-138" value="+cst: string" style="text;strokeColor=none;fillColor=none;align=left;verticalAlign=top;spacingLeft=4;spacingRight=4;overflow=hidden;rotatable=0;points=[[0,0.5],[1,0.5]];portConstraint=eastwest;whiteSpace=wrap;html=1;" parent="E0hig0ynKckbbGIFJYIU-130" vertex="1">
          <mxGeometry y="208" width="140" height="26" as="geometry" />
        </mxCell>
        <mxCell id="E0hig0ynKckbbGIFJYIU-139" value="+cfop: string" style="text;strokeColor=none;fillColor=none;align=left;verticalAlign=top;spacingLeft=4;spacingRight=4;overflow=hidden;rotatable=0;points=[[0,0.5],[1,0.5]];portConstraint=eastwest;whiteSpace=wrap;html=1;" parent="E0hig0ynKckbbGIFJYIU-130" vertex="1">
          <mxGeometry y="234" width="140" height="26" as="geometry" />
        </mxCell>
        <mxCell id="E0hig0ynKckbbGIFJYIU-140" value="+csosm: string" style="text;strokeColor=none;fillColor=none;align=left;verticalAlign=top;spacingLeft=4;spacingRight=4;overflow=hidden;rotatable=0;points=[[0,0.5],[1,0.5]];portConstraint=eastwest;whiteSpace=wrap;html=1;" parent="E0hig0ynKckbbGIFJYIU-130" vertex="1">
          <mxGeometry y="260" width="140" height="26" as="geometry" />
        </mxCell>
        <mxCell id="E0hig0ynKckbbGIFJYIU-141" value="+total: string" style="text;strokeColor=none;fillColor=none;align=left;verticalAlign=top;spacingLeft=4;spacingRight=4;overflow=hidden;rotatable=0;points=[[0,0.5],[1,0.5]];portConstraint=eastwest;whiteSpace=wrap;html=1;" parent="E0hig0ynKckbbGIFJYIU-130" vertex="1">
          <mxGeometry y="286" width="140" height="26" as="geometry" />
        </mxCell>
        <mxCell id="E0hig0ynKckbbGIFJYIU-142" value="+ base_ICMS:string" style="text;strokeColor=none;fillColor=none;align=left;verticalAlign=top;spacingLeft=4;spacingRight=4;overflow=hidden;rotatable=0;points=[[0,0.5],[1,0.5]];portConstraint=eastwest;whiteSpace=wrap;html=1;" parent="E0hig0ynKckbbGIFJYIU-130" vertex="1">
          <mxGeometry y="312" width="140" height="26" as="geometry" />
        </mxCell>
        <mxCell id="E0hig0ynKckbbGIFJYIU-143" value="+ vICMS:string" style="text;strokeColor=none;fillColor=none;align=left;verticalAlign=top;spacingLeft=4;spacingRight=4;overflow=hidden;rotatable=0;points=[[0,0.5],[1,0.5]];portConstraint=eastwest;whiteSpace=wrap;html=1;" parent="E0hig0ynKckbbGIFJYIU-130" vertex="1">
          <mxGeometry y="338" width="140" height="26" as="geometry" />
        </mxCell>
        <mxCell id="E0hig0ynKckbbGIFJYIU-144" value="+ base_ST: string" style="text;strokeColor=none;fillColor=none;align=left;verticalAlign=top;spacingLeft=4;spacingRight=4;overflow=hidden;rotatable=0;points=[[0,0.5],[1,0.5]];portConstraint=eastwest;whiteSpace=wrap;html=1;" parent="E0hig0ynKckbbGIFJYIU-130" vertex="1">
          <mxGeometry y="364" width="140" height="26" as="geometry" />
        </mxCell>
        <mxCell id="E0hig0ynKckbbGIFJYIU-145" value="+ vST: string" style="text;strokeColor=none;fillColor=none;align=left;verticalAlign=top;spacingLeft=4;spacingRight=4;overflow=hidden;rotatable=0;points=[[0,0.5],[1,0.5]];portConstraint=eastwest;whiteSpace=wrap;html=1;" parent="E0hig0ynKckbbGIFJYIU-130" vertex="1">
          <mxGeometry y="390" width="140" height="26" as="geometry" />
        </mxCell>
        <mxCell id="E0hig0ynKckbbGIFJYIU-146" value="Empresa" style="swimlane;fontStyle=0;childLayout=stackLayout;horizontal=1;startSize=26;fillColor=none;horizontalStack=0;resizeParent=1;resizeParentMax=0;resizeLast=0;collapsible=1;marginBottom=0;whiteSpace=wrap;html=1;" parent="WIyWlLk6GJQsqaUBKTNV-1" vertex="1">
          <mxGeometry x="230" y="40" width="160" height="182" as="geometry">
            <mxRectangle x="260" y="210" width="90" height="30" as="alternateBounds" />
          </mxGeometry>
        </mxCell>
        <mxCell id="E0hig0ynKckbbGIFJYIU-147" value="+ id: int" style="text;strokeColor=none;fillColor=none;align=left;verticalAlign=top;spacingLeft=4;spacingRight=4;overflow=hidden;rotatable=0;points=[[0,0.5],[1,0.5]];portConstraint=eastwest;whiteSpace=wrap;html=1;" parent="E0hig0ynKckbbGIFJYIU-146" vertex="1">
          <mxGeometry y="26" width="160" height="26" as="geometry" />
        </mxCell>
        <mxCell id="E0hig0ynKckbbGIFJYIU-148" value="+ razao_social:string" style="text;strokeColor=none;fillColor=none;align=left;verticalAlign=top;spacingLeft=4;spacingRight=4;overflow=hidden;rotatable=0;points=[[0,0.5],[1,0.5]];portConstraint=eastwest;whiteSpace=wrap;html=1;" parent="E0hig0ynKckbbGIFJYIU-146" vertex="1">
          <mxGeometry y="52" width="160" height="26" as="geometry" />
        </mxCell>
        <mxCell id="E0hig0ynKckbbGIFJYIU-149" value="+nome_fantasia:string" style="text;strokeColor=none;fillColor=none;align=left;verticalAlign=top;spacingLeft=4;spacingRight=4;overflow=hidden;rotatable=0;points=[[0,0.5],[1,0.5]];portConstraint=eastwest;whiteSpace=wrap;html=1;" parent="E0hig0ynKckbbGIFJYIU-146" vertex="1">
          <mxGeometry y="78" width="160" height="26" as="geometry" />
        </mxCell>
        <mxCell id="E0hig0ynKckbbGIFJYIU-150" value="+cnpj:string" style="text;strokeColor=none;fillColor=none;align=left;verticalAlign=top;spacingLeft=4;spacingRight=4;overflow=hidden;rotatable=0;points=[[0,0.5],[1,0.5]];portConstraint=eastwest;whiteSpace=wrap;html=1;" parent="E0hig0ynKckbbGIFJYIU-146" vertex="1">
          <mxGeometry y="104" width="160" height="26" as="geometry" />
        </mxCell>
        <mxCell id="E0hig0ynKckbbGIFJYIU-151" value="+inscricao_estadual:string" style="text;strokeColor=none;fillColor=none;align=left;verticalAlign=top;spacingLeft=4;spacingRight=4;overflow=hidden;rotatable=0;points=[[0,0.5],[1,0.5]];portConstraint=eastwest;whiteSpace=wrap;html=1;" parent="E0hig0ynKckbbGIFJYIU-146" vertex="1">
          <mxGeometry y="130" width="160" height="26" as="geometry" />
        </mxCell>
        <mxCell id="E0hig0ynKckbbGIFJYIU-152" value="+endereco:string" style="text;strokeColor=none;fillColor=none;align=left;verticalAlign=top;spacingLeft=4;spacingRight=4;overflow=hidden;rotatable=0;points=[[0,0.5],[1,0.5]];portConstraint=eastwest;whiteSpace=wrap;html=1;" parent="E0hig0ynKckbbGIFJYIU-146" vertex="1">
          <mxGeometry y="156" width="160" height="26" as="geometry" />
        </mxCell>
        <mxCell id="E0hig0ynKckbbGIFJYIU-153" value="Fornecedor" style="swimlane;fontStyle=0;childLayout=stackLayout;horizontal=1;startSize=26;fillColor=none;horizontalStack=0;resizeParent=1;resizeParentMax=0;resizeLast=0;collapsible=1;marginBottom=0;whiteSpace=wrap;html=1;" parent="WIyWlLk6GJQsqaUBKTNV-1" vertex="1">
          <mxGeometry x="440" y="40" width="160" height="182" as="geometry">
            <mxRectangle x="260" y="210" width="90" height="30" as="alternateBounds" />
          </mxGeometry>
        </mxCell>
        <mxCell id="E0hig0ynKckbbGIFJYIU-154" value="+ id: int" style="text;strokeColor=none;fillColor=none;align=left;verticalAlign=top;spacingLeft=4;spacingRight=4;overflow=hidden;rotatable=0;points=[[0,0.5],[1,0.5]];portConstraint=eastwest;whiteSpace=wrap;html=1;" parent="E0hig0ynKckbbGIFJYIU-153" vertex="1">
          <mxGeometry y="26" width="160" height="26" as="geometry" />
        </mxCell>
        <mxCell id="E0hig0ynKckbbGIFJYIU-155" value="+ razao_social:string" style="text;strokeColor=none;fillColor=none;align=left;verticalAlign=top;spacingLeft=4;spacingRight=4;overflow=hidden;rotatable=0;points=[[0,0.5],[1,0.5]];portConstraint=eastwest;whiteSpace=wrap;html=1;" parent="E0hig0ynKckbbGIFJYIU-153" vertex="1">
          <mxGeometry y="52" width="160" height="26" as="geometry" />
        </mxCell>
        <mxCell id="E0hig0ynKckbbGIFJYIU-156" value="+nome_fantasia:string" style="text;strokeColor=none;fillColor=none;align=left;verticalAlign=top;spacingLeft=4;spacingRight=4;overflow=hidden;rotatable=0;points=[[0,0.5],[1,0.5]];portConstraint=eastwest;whiteSpace=wrap;html=1;" parent="E0hig0ynKckbbGIFJYIU-153" vertex="1">
          <mxGeometry y="78" width="160" height="26" as="geometry" />
        </mxCell>
        <mxCell id="E0hig0ynKckbbGIFJYIU-157" value="+cnpj:string" style="text;strokeColor=none;fillColor=none;align=left;verticalAlign=top;spacingLeft=4;spacingRight=4;overflow=hidden;rotatable=0;points=[[0,0.5],[1,0.5]];portConstraint=eastwest;whiteSpace=wrap;html=1;" parent="E0hig0ynKckbbGIFJYIU-153" vertex="1">
          <mxGeometry y="104" width="160" height="26" as="geometry" />
        </mxCell>
        <mxCell id="E0hig0ynKckbbGIFJYIU-158" value="+inscricao_estadual:string" style="text;strokeColor=none;fillColor=none;align=left;verticalAlign=top;spacingLeft=4;spacingRight=4;overflow=hidden;rotatable=0;points=[[0,0.5],[1,0.5]];portConstraint=eastwest;whiteSpace=wrap;html=1;" parent="E0hig0ynKckbbGIFJYIU-153" vertex="1">
          <mxGeometry y="130" width="160" height="26" as="geometry" />
        </mxCell>
        <mxCell id="E0hig0ynKckbbGIFJYIU-159" value="+endereco:string" style="text;strokeColor=none;fillColor=none;align=left;verticalAlign=top;spacingLeft=4;spacingRight=4;overflow=hidden;rotatable=0;points=[[0,0.5],[1,0.5]];portConstraint=eastwest;whiteSpace=wrap;html=1;" parent="E0hig0ynKckbbGIFJYIU-153" vertex="1">
          <mxGeometry y="156" width="160" height="26" as="geometry" />
        </mxCell>
        <mxCell id="E0hig0ynKckbbGIFJYIU-160" value="Venda_item" style="swimlane;fontStyle=0;childLayout=stackLayout;horizontal=1;startSize=26;fillColor=none;horizontalStack=0;resizeParent=1;resizeParentMax=0;resizeLast=0;collapsible=1;marginBottom=0;whiteSpace=wrap;html=1;" parent="WIyWlLk6GJQsqaUBKTNV-1" vertex="1">
          <mxGeometry x="240" y="560" width="140" height="260" as="geometry" />
        </mxCell>
        <mxCell id="E0hig0ynKckbbGIFJYIU-161" value="+ produto_id: Produto" style="text;strokeColor=none;fillColor=none;align=left;verticalAlign=top;spacingLeft=4;spacingRight=4;overflow=hidden;rotatable=0;points=[[0,0.5],[1,0.5]];portConstraint=eastwest;whiteSpace=wrap;html=1;" parent="E0hig0ynKckbbGIFJYIU-160" vertex="1">
          <mxGeometry y="26" width="140" height="26" as="geometry" />
        </mxCell>
        <mxCell id="E0hig0ynKckbbGIFJYIU-162" value="+ quantidade: type" style="text;strokeColor=none;fillColor=none;align=left;verticalAlign=top;spacingLeft=4;spacingRight=4;overflow=hidden;rotatable=0;points=[[0,0.5],[1,0.5]];portConstraint=eastwest;whiteSpace=wrap;html=1;" parent="E0hig0ynKckbbGIFJYIU-160" vertex="1">
          <mxGeometry y="52" width="140" height="26" as="geometry" />
        </mxCell>
        <mxCell id="E0hig0ynKckbbGIFJYIU-163" value="+ valor_unit: type" style="text;strokeColor=none;fillColor=none;align=left;verticalAlign=top;spacingLeft=4;spacingRight=4;overflow=hidden;rotatable=0;points=[[0,0.5],[1,0.5]];portConstraint=eastwest;whiteSpace=wrap;html=1;" parent="E0hig0ynKckbbGIFJYIU-160" vertex="1">
          <mxGeometry y="78" width="140" height="26" as="geometry" />
        </mxCell>
        <mxCell id="E0hig0ynKckbbGIFJYIU-164" value="+ subtotal: type" style="text;strokeColor=none;fillColor=none;align=left;verticalAlign=top;spacingLeft=4;spacingRight=4;overflow=hidden;rotatable=0;points=[[0,0.5],[1,0.5]];portConstraint=eastwest;whiteSpace=wrap;html=1;" parent="E0hig0ynKckbbGIFJYIU-160" vertex="1">
          <mxGeometry y="104" width="140" height="26" as="geometry" />
        </mxCell>
        <mxCell id="E0hig0ynKckbbGIFJYIU-165" value="+ acrescimo: type" style="text;strokeColor=none;fillColor=none;align=left;verticalAlign=top;spacingLeft=4;spacingRight=4;overflow=hidden;rotatable=0;points=[[0,0.5],[1,0.5]];portConstraint=eastwest;whiteSpace=wrap;html=1;" parent="E0hig0ynKckbbGIFJYIU-160" vertex="1">
          <mxGeometry y="130" width="140" height="26" as="geometry" />
        </mxCell>
        <mxCell id="E0hig0ynKckbbGIFJYIU-166" value="+ desconto: type" style="text;strokeColor=none;fillColor=none;align=left;verticalAlign=top;spacingLeft=4;spacingRight=4;overflow=hidden;rotatable=0;points=[[0,0.5],[1,0.5]];portConstraint=eastwest;whiteSpace=wrap;html=1;" parent="E0hig0ynKckbbGIFJYIU-160" vertex="1">
          <mxGeometry y="156" width="140" height="26" as="geometry" />
        </mxCell>
        <mxCell id="E0hig0ynKckbbGIFJYIU-167" value="+ total: type" style="text;strokeColor=none;fillColor=none;align=left;verticalAlign=top;spacingLeft=4;spacingRight=4;overflow=hidden;rotatable=0;points=[[0,0.5],[1,0.5]];portConstraint=eastwest;whiteSpace=wrap;html=1;" parent="E0hig0ynKckbbGIFJYIU-160" vertex="1">
          <mxGeometry y="182" width="140" height="26" as="geometry" />
        </mxCell>
        <mxCell id="E0hig0ynKckbbGIFJYIU-168" value="+ venda_id : Venda" style="text;strokeColor=none;fillColor=none;align=left;verticalAlign=top;spacingLeft=4;spacingRight=4;overflow=hidden;rotatable=0;points=[[0,0.5],[1,0.5]];portConstraint=eastwest;whiteSpace=wrap;html=1;" parent="E0hig0ynKckbbGIFJYIU-160" vertex="1">
          <mxGeometry y="208" width="140" height="26" as="geometry" />
        </mxCell>
        <mxCell id="E0hig0ynKckbbGIFJYIU-169" value="+ total: type" style="text;strokeColor=none;fillColor=none;align=left;verticalAlign=top;spacingLeft=4;spacingRight=4;overflow=hidden;rotatable=0;points=[[0,0.5],[1,0.5]];portConstraint=eastwest;whiteSpace=wrap;html=1;" parent="E0hig0ynKckbbGIFJYIU-160" vertex="1">
          <mxGeometry y="234" width="140" height="26" as="geometry" />
        </mxCell>
        <mxCell id="E0hig0ynKckbbGIFJYIU-170" value="Endereco" style="swimlane;fontStyle=0;childLayout=stackLayout;horizontal=1;startSize=26;fillColor=none;horizontalStack=0;resizeParent=1;resizeParentMax=0;resizeLast=0;collapsible=1;marginBottom=0;whiteSpace=wrap;html=1;" parent="WIyWlLk6GJQsqaUBKTNV-1" vertex="1">
          <mxGeometry x="650" y="40" width="140" height="260" as="geometry" />
        </mxCell>
        <mxCell id="E0hig0ynKckbbGIFJYIU-171" value="+ id: int" style="text;strokeColor=none;fillColor=none;align=left;verticalAlign=top;spacingLeft=4;spacingRight=4;overflow=hidden;rotatable=0;points=[[0,0.5],[1,0.5]];portConstraint=eastwest;whiteSpace=wrap;html=1;" parent="E0hig0ynKckbbGIFJYIU-170" vertex="1">
          <mxGeometry y="26" width="140" height="26" as="geometry" />
        </mxCell>
        <mxCell id="E0hig0ynKckbbGIFJYIU-172" value="+ logradouro: string" style="text;strokeColor=none;fillColor=none;align=left;verticalAlign=top;spacingLeft=4;spacingRight=4;overflow=hidden;rotatable=0;points=[[0,0.5],[1,0.5]];portConstraint=eastwest;whiteSpace=wrap;html=1;" parent="E0hig0ynKckbbGIFJYIU-170" vertex="1">
          <mxGeometry y="52" width="140" height="26" as="geometry" />
        </mxCell>
        <mxCell id="E0hig0ynKckbbGIFJYIU-173" value="+ numero: string" style="text;strokeColor=none;fillColor=none;align=left;verticalAlign=top;spacingLeft=4;spacingRight=4;overflow=hidden;rotatable=0;points=[[0,0.5],[1,0.5]];portConstraint=eastwest;whiteSpace=wrap;html=1;" parent="E0hig0ynKckbbGIFJYIU-170" vertex="1">
          <mxGeometry y="78" width="140" height="26" as="geometry" />
        </mxCell>
        <mxCell id="E0hig0ynKckbbGIFJYIU-174" value="+ bairro: string" style="text;strokeColor=none;fillColor=none;align=left;verticalAlign=top;spacingLeft=4;spacingRight=4;overflow=hidden;rotatable=0;points=[[0,0.5],[1,0.5]];portConstraint=eastwest;whiteSpace=wrap;html=1;" parent="E0hig0ynKckbbGIFJYIU-170" vertex="1">
          <mxGeometry y="104" width="140" height="26" as="geometry" />
        </mxCell>
        <mxCell id="E0hig0ynKckbbGIFJYIU-175" value="+ uf: string" style="text;strokeColor=none;fillColor=none;align=left;verticalAlign=top;spacingLeft=4;spacingRight=4;overflow=hidden;rotatable=0;points=[[0,0.5],[1,0.5]];portConstraint=eastwest;whiteSpace=wrap;html=1;" parent="E0hig0ynKckbbGIFJYIU-170" vertex="1">
          <mxGeometry y="130" width="140" height="26" as="geometry" />
        </mxCell>
        <mxCell id="E0hig0ynKckbbGIFJYIU-176" value="+ cidade: string" style="text;strokeColor=none;fillColor=none;align=left;verticalAlign=top;spacingLeft=4;spacingRight=4;overflow=hidden;rotatable=0;points=[[0,0.5],[1,0.5]];portConstraint=eastwest;whiteSpace=wrap;html=1;" parent="E0hig0ynKckbbGIFJYIU-170" vertex="1">
          <mxGeometry y="156" width="140" height="26" as="geometry" />
        </mxCell>
        <mxCell id="E0hig0ynKckbbGIFJYIU-177" value="+ cep: string" style="text;strokeColor=none;fillColor=none;align=left;verticalAlign=top;spacingLeft=4;spacingRight=4;overflow=hidden;rotatable=0;points=[[0,0.5],[1,0.5]];portConstraint=eastwest;whiteSpace=wrap;html=1;" parent="E0hig0ynKckbbGIFJYIU-170" vertex="1">
          <mxGeometry y="182" width="140" height="26" as="geometry" />
        </mxCell>
        <mxCell id="E0hig0ynKckbbGIFJYIU-178" value="+ ibge: string" style="text;strokeColor=none;fillColor=none;align=left;verticalAlign=top;spacingLeft=4;spacingRight=4;overflow=hidden;rotatable=0;points=[[0,0.5],[1,0.5]];portConstraint=eastwest;whiteSpace=wrap;html=1;" parent="E0hig0ynKckbbGIFJYIU-170" vertex="1">
          <mxGeometry y="208" width="140" height="26" as="geometry" />
        </mxCell>
        <mxCell id="E0hig0ynKckbbGIFJYIU-179" value="+ empresa_id: Empresa" style="text;strokeColor=none;fillColor=none;align=left;verticalAlign=top;spacingLeft=4;spacingRight=4;overflow=hidden;rotatable=0;points=[[0,0.5],[1,0.5]];portConstraint=eastwest;whiteSpace=wrap;html=1;" parent="E0hig0ynKckbbGIFJYIU-170" vertex="1">
          <mxGeometry y="234" width="140" height="26" as="geometry" />
        </mxCell>
        <mxCell id="E0hig0ynKckbbGIFJYIU-197" value="Item_pedido" style="swimlane;fontStyle=0;childLayout=stackLayout;horizontal=1;startSize=26;fillColor=none;horizontalStack=0;resizeParent=1;resizeParentMax=0;resizeLast=0;collapsible=1;marginBottom=0;whiteSpace=wrap;html=1;" parent="WIyWlLk6GJQsqaUBKTNV-1" vertex="1">
          <mxGeometry x="50" y="820" width="140" height="208" as="geometry" />
        </mxCell>
        <mxCell id="E0hig0ynKckbbGIFJYIU-198" value="+ id: type" style="text;strokeColor=none;fillColor=none;align=left;verticalAlign=top;spacingLeft=4;spacingRight=4;overflow=hidden;rotatable=0;points=[[0,0.5],[1,0.5]];portConstraint=eastwest;whiteSpace=wrap;html=1;" parent="E0hig0ynKckbbGIFJYIU-197" vertex="1">
          <mxGeometry y="26" width="140" height="26" as="geometry" />
        </mxCell>
        <mxCell id="E0hig0ynKckbbGIFJYIU-199" value="+ produto_id: type" style="text;strokeColor=none;fillColor=none;align=left;verticalAlign=top;spacingLeft=4;spacingRight=4;overflow=hidden;rotatable=0;points=[[0,0.5],[1,0.5]];portConstraint=eastwest;whiteSpace=wrap;html=1;" parent="E0hig0ynKckbbGIFJYIU-197" vertex="1">
          <mxGeometry y="52" width="140" height="26" as="geometry" />
        </mxCell>
        <mxCell id="E0hig0ynKckbbGIFJYIU-200" value="+ quantidade: type" style="text;strokeColor=none;fillColor=none;align=left;verticalAlign=top;spacingLeft=4;spacingRight=4;overflow=hidden;rotatable=0;points=[[0,0.5],[1,0.5]];portConstraint=eastwest;whiteSpace=wrap;html=1;" parent="E0hig0ynKckbbGIFJYIU-197" vertex="1">
          <mxGeometry y="78" width="140" height="26" as="geometry" />
        </mxCell>
        <mxCell id="E0hig0ynKckbbGIFJYIU-201" value="+ valor_unitario: type" style="text;strokeColor=none;fillColor=none;align=left;verticalAlign=top;spacingLeft=4;spacingRight=4;overflow=hidden;rotatable=0;points=[[0,0.5],[1,0.5]];portConstraint=eastwest;whiteSpace=wrap;html=1;" parent="E0hig0ynKckbbGIFJYIU-197" vertex="1">
          <mxGeometry y="104" width="140" height="26" as="geometry" />
        </mxCell>
        <mxCell id="E0hig0ynKckbbGIFJYIU-202" value="+ desconto: type" style="text;strokeColor=none;fillColor=none;align=left;verticalAlign=top;spacingLeft=4;spacingRight=4;overflow=hidden;rotatable=0;points=[[0,0.5],[1,0.5]];portConstraint=eastwest;whiteSpace=wrap;html=1;" parent="E0hig0ynKckbbGIFJYIU-197" vertex="1">
          <mxGeometry y="130" width="140" height="26" as="geometry" />
        </mxCell>
        <mxCell id="E0hig0ynKckbbGIFJYIU-203" value="+ acrescimo: type" style="text;strokeColor=none;fillColor=none;align=left;verticalAlign=top;spacingLeft=4;spacingRight=4;overflow=hidden;rotatable=0;points=[[0,0.5],[1,0.5]];portConstraint=eastwest;whiteSpace=wrap;html=1;" parent="E0hig0ynKckbbGIFJYIU-197" vertex="1">
          <mxGeometry y="156" width="140" height="26" as="geometry" />
        </mxCell>
        <mxCell id="E0hig0ynKckbbGIFJYIU-204" value="+ total: type" style="text;strokeColor=none;fillColor=none;align=left;verticalAlign=top;spacingLeft=4;spacingRight=4;overflow=hidden;rotatable=0;points=[[0,0.5],[1,0.5]];portConstraint=eastwest;whiteSpace=wrap;html=1;" parent="E0hig0ynKckbbGIFJYIU-197" vertex="1">
          <mxGeometry y="182" width="140" height="26" as="geometry" />
        </mxCell>
        <mxCell id="E0hig0ynKckbbGIFJYIU-245" value="Item_cupom" style="swimlane;fontStyle=0;childLayout=stackLayout;horizontal=1;startSize=26;fillColor=none;horizontalStack=0;resizeParent=1;resizeParentMax=0;resizeLast=0;collapsible=1;marginBottom=0;whiteSpace=wrap;html=1;" parent="WIyWlLk6GJQsqaUBKTNV-1" vertex="1">
          <mxGeometry x="450" y="2030" width="140" height="208" as="geometry" />
        </mxCell>
        <mxCell id="E0hig0ynKckbbGIFJYIU-246" value="+ id: type" style="text;strokeColor=none;fillColor=none;align=left;verticalAlign=top;spacingLeft=4;spacingRight=4;overflow=hidden;rotatable=0;points=[[0,0.5],[1,0.5]];portConstraint=eastwest;whiteSpace=wrap;html=1;" parent="E0hig0ynKckbbGIFJYIU-245" vertex="1">
          <mxGeometry y="26" width="140" height="26" as="geometry" />
        </mxCell>
        <mxCell id="E0hig0ynKckbbGIFJYIU-247" value="+ produto_id: type" style="text;strokeColor=none;fillColor=none;align=left;verticalAlign=top;spacingLeft=4;spacingRight=4;overflow=hidden;rotatable=0;points=[[0,0.5],[1,0.5]];portConstraint=eastwest;whiteSpace=wrap;html=1;" parent="E0hig0ynKckbbGIFJYIU-245" vertex="1">
          <mxGeometry y="52" width="140" height="26" as="geometry" />
        </mxCell>
        <mxCell id="E0hig0ynKckbbGIFJYIU-248" value="+ quantidade: type" style="text;strokeColor=none;fillColor=none;align=left;verticalAlign=top;spacingLeft=4;spacingRight=4;overflow=hidden;rotatable=0;points=[[0,0.5],[1,0.5]];portConstraint=eastwest;whiteSpace=wrap;html=1;" parent="E0hig0ynKckbbGIFJYIU-245" vertex="1">
          <mxGeometry y="78" width="140" height="26" as="geometry" />
        </mxCell>
        <mxCell id="E0hig0ynKckbbGIFJYIU-249" value="+ valor_unitario: type" style="text;strokeColor=none;fillColor=none;align=left;verticalAlign=top;spacingLeft=4;spacingRight=4;overflow=hidden;rotatable=0;points=[[0,0.5],[1,0.5]];portConstraint=eastwest;whiteSpace=wrap;html=1;" parent="E0hig0ynKckbbGIFJYIU-245" vertex="1">
          <mxGeometry y="104" width="140" height="26" as="geometry" />
        </mxCell>
        <mxCell id="E0hig0ynKckbbGIFJYIU-250" value="+ desconto: type" style="text;strokeColor=none;fillColor=none;align=left;verticalAlign=top;spacingLeft=4;spacingRight=4;overflow=hidden;rotatable=0;points=[[0,0.5],[1,0.5]];portConstraint=eastwest;whiteSpace=wrap;html=1;" parent="E0hig0ynKckbbGIFJYIU-245" vertex="1">
          <mxGeometry y="130" width="140" height="26" as="geometry" />
        </mxCell>
        <mxCell id="E0hig0ynKckbbGIFJYIU-251" value="+ acrescimo: type" style="text;strokeColor=none;fillColor=none;align=left;verticalAlign=top;spacingLeft=4;spacingRight=4;overflow=hidden;rotatable=0;points=[[0,0.5],[1,0.5]];portConstraint=eastwest;whiteSpace=wrap;html=1;" parent="E0hig0ynKckbbGIFJYIU-245" vertex="1">
          <mxGeometry y="156" width="140" height="26" as="geometry" />
        </mxCell>
        <mxCell id="E0hig0ynKckbbGIFJYIU-252" value="+ total: type" style="text;strokeColor=none;fillColor=none;align=left;verticalAlign=top;spacingLeft=4;spacingRight=4;overflow=hidden;rotatable=0;points=[[0,0.5],[1,0.5]];portConstraint=eastwest;whiteSpace=wrap;html=1;" parent="E0hig0ynKckbbGIFJYIU-245" vertex="1">
          <mxGeometry y="182" width="140" height="26" as="geometry" />
        </mxCell>
        <mxCell id="3pg20oMSGivsmgHxgJQv-0" value="Ordem_producao" style="swimlane;fontStyle=0;childLayout=stackLayout;horizontal=1;startSize=26;fillColor=none;horizontalStack=0;resizeParent=1;resizeParentMax=0;resizeLast=0;collapsible=1;marginBottom=0;whiteSpace=wrap;html=1;" vertex="1" parent="WIyWlLk6GJQsqaUBKTNV-1">
          <mxGeometry x="56" y="2350" width="224" height="208" as="geometry" />
        </mxCell>
        <mxCell id="3pg20oMSGivsmgHxgJQv-13" value="+ id: type" style="text;strokeColor=none;fillColor=none;align=left;verticalAlign=top;spacingLeft=4;spacingRight=4;overflow=hidden;rotatable=0;points=[[0,0.5],[1,0.5]];portConstraint=eastwest;whiteSpace=wrap;html=1;" vertex="1" parent="3pg20oMSGivsmgHxgJQv-0">
          <mxGeometry y="26" width="224" height="26" as="geometry" />
        </mxCell>
        <mxCell id="3pg20oMSGivsmgHxgJQv-1" value="+ data: type" style="text;strokeColor=none;fillColor=none;align=left;verticalAlign=top;spacingLeft=4;spacingRight=4;overflow=hidden;rotatable=0;points=[[0,0.5],[1,0.5]];portConstraint=eastwest;whiteSpace=wrap;html=1;" vertex="1" parent="3pg20oMSGivsmgHxgJQv-0">
          <mxGeometry y="52" width="224" height="26" as="geometry" />
        </mxCell>
        <mxCell id="3pg20oMSGivsmgHxgJQv-2" value="+ produto_id: type" style="text;strokeColor=none;fillColor=none;align=left;verticalAlign=top;spacingLeft=4;spacingRight=4;overflow=hidden;rotatable=0;points=[[0,0.5],[1,0.5]];portConstraint=eastwest;whiteSpace=wrap;html=1;" vertex="1" parent="3pg20oMSGivsmgHxgJQv-0">
          <mxGeometry y="78" width="224" height="26" as="geometry" />
        </mxCell>
        <mxCell id="3pg20oMSGivsmgHxgJQv-3" value="+ producao_estimada: type" style="text;strokeColor=none;fillColor=none;align=left;verticalAlign=top;spacingLeft=4;spacingRight=4;overflow=hidden;rotatable=0;points=[[0,0.5],[1,0.5]];portConstraint=eastwest;whiteSpace=wrap;html=1;" vertex="1" parent="3pg20oMSGivsmgHxgJQv-0">
          <mxGeometry y="104" width="224" height="26" as="geometry" />
        </mxCell>
        <mxCell id="3pg20oMSGivsmgHxgJQv-8" value="+ producao_real: type" style="text;strokeColor=none;fillColor=none;align=left;verticalAlign=top;spacingLeft=4;spacingRight=4;overflow=hidden;rotatable=0;points=[[0,0.5],[1,0.5]];portConstraint=eastwest;whiteSpace=wrap;html=1;" vertex="1" parent="3pg20oMSGivsmgHxgJQv-0">
          <mxGeometry y="130" width="224" height="26" as="geometry" />
        </mxCell>
        <mxCell id="3pg20oMSGivsmgHxgJQv-9" value="+ responsavel: type" style="text;strokeColor=none;fillColor=none;align=left;verticalAlign=top;spacingLeft=4;spacingRight=4;overflow=hidden;rotatable=0;points=[[0,0.5],[1,0.5]];portConstraint=eastwest;whiteSpace=wrap;html=1;" vertex="1" parent="3pg20oMSGivsmgHxgJQv-0">
          <mxGeometry y="156" width="224" height="26" as="geometry" />
        </mxCell>
        <mxCell id="3pg20oMSGivsmgHxgJQv-10" value="+ status: type" style="text;strokeColor=none;fillColor=none;align=left;verticalAlign=top;spacingLeft=4;spacingRight=4;overflow=hidden;rotatable=0;points=[[0,0.5],[1,0.5]];portConstraint=eastwest;whiteSpace=wrap;html=1;" vertex="1" parent="3pg20oMSGivsmgHxgJQv-0">
          <mxGeometry y="182" width="224" height="26" as="geometry" />
        </mxCell>
        <mxCell id="3pg20oMSGivsmgHxgJQv-4" value="Serao" style="swimlane;fontStyle=0;childLayout=stackLayout;horizontal=1;startSize=26;fillColor=none;horizontalStack=0;resizeParent=1;resizeParentMax=0;resizeLast=0;collapsible=1;marginBottom=0;whiteSpace=wrap;html=1;" vertex="1" parent="WIyWlLk6GJQsqaUBKTNV-1">
          <mxGeometry x="320" y="2350" width="140" height="156" as="geometry" />
        </mxCell>
        <mxCell id="3pg20oMSGivsmgHxgJQv-12" value="+ id: type" style="text;strokeColor=none;fillColor=none;align=left;verticalAlign=top;spacingLeft=4;spacingRight=4;overflow=hidden;rotatable=0;points=[[0,0.5],[1,0.5]];portConstraint=eastwest;whiteSpace=wrap;html=1;" vertex="1" parent="3pg20oMSGivsmgHxgJQv-4">
          <mxGeometry y="26" width="140" height="26" as="geometry" />
        </mxCell>
        <mxCell id="3pg20oMSGivsmgHxgJQv-5" value="+ data: type" style="text;strokeColor=none;fillColor=none;align=left;verticalAlign=top;spacingLeft=4;spacingRight=4;overflow=hidden;rotatable=0;points=[[0,0.5],[1,0.5]];portConstraint=eastwest;whiteSpace=wrap;html=1;" vertex="1" parent="3pg20oMSGivsmgHxgJQv-4">
          <mxGeometry y="52" width="140" height="26" as="geometry" />
        </mxCell>
        <mxCell id="3pg20oMSGivsmgHxgJQv-6" value="+ funcionario_id: type" style="text;strokeColor=none;fillColor=none;align=left;verticalAlign=top;spacingLeft=4;spacingRight=4;overflow=hidden;rotatable=0;points=[[0,0.5],[1,0.5]];portConstraint=eastwest;whiteSpace=wrap;html=1;" vertex="1" parent="3pg20oMSGivsmgHxgJQv-4">
          <mxGeometry y="78" width="140" height="26" as="geometry" />
        </mxCell>
        <mxCell id="3pg20oMSGivsmgHxgJQv-7" value="+ hora_inicio: type" style="text;strokeColor=none;fillColor=none;align=left;verticalAlign=top;spacingLeft=4;spacingRight=4;overflow=hidden;rotatable=0;points=[[0,0.5],[1,0.5]];portConstraint=eastwest;whiteSpace=wrap;html=1;" vertex="1" parent="3pg20oMSGivsmgHxgJQv-4">
          <mxGeometry y="104" width="140" height="26" as="geometry" />
        </mxCell>
        <mxCell id="3pg20oMSGivsmgHxgJQv-11" value="+ hora_fim: type" style="text;strokeColor=none;fillColor=none;align=left;verticalAlign=top;spacingLeft=4;spacingRight=4;overflow=hidden;rotatable=0;points=[[0,0.5],[1,0.5]];portConstraint=eastwest;whiteSpace=wrap;html=1;" vertex="1" parent="3pg20oMSGivsmgHxgJQv-4">
          <mxGeometry y="130" width="140" height="26" as="geometry" />
        </mxCell>
        <mxCell id="0KZu2uRD0u0P8xtPNETf-0" value="Sangria" style="swimlane;fontStyle=0;childLayout=stackLayout;horizontal=1;startSize=26;fillColor=none;horizontalStack=0;resizeParent=1;resizeParentMax=0;resizeLast=0;collapsible=1;marginBottom=0;whiteSpace=wrap;html=1;" vertex="1" parent="WIyWlLk6GJQsqaUBKTNV-1">
          <mxGeometry x="500" y="2350" width="140" height="130" as="geometry" />
        </mxCell>
        <mxCell id="0KZu2uRD0u0P8xtPNETf-1" value="+ id: type" style="text;strokeColor=none;fillColor=none;align=left;verticalAlign=top;spacingLeft=4;spacingRight=4;overflow=hidden;rotatable=0;points=[[0,0.5],[1,0.5]];portConstraint=eastwest;whiteSpace=wrap;html=1;" vertex="1" parent="0KZu2uRD0u0P8xtPNETf-0">
          <mxGeometry y="26" width="140" height="26" as="geometry" />
        </mxCell>
        <mxCell id="0KZu2uRD0u0P8xtPNETf-2" value="+ data: type" style="text;strokeColor=none;fillColor=none;align=left;verticalAlign=top;spacingLeft=4;spacingRight=4;overflow=hidden;rotatable=0;points=[[0,0.5],[1,0.5]];portConstraint=eastwest;whiteSpace=wrap;html=1;" vertex="1" parent="0KZu2uRD0u0P8xtPNETf-0">
          <mxGeometry y="52" width="140" height="26" as="geometry" />
        </mxCell>
        <mxCell id="0KZu2uRD0u0P8xtPNETf-3" value="+ descricao: type" style="text;strokeColor=none;fillColor=none;align=left;verticalAlign=top;spacingLeft=4;spacingRight=4;overflow=hidden;rotatable=0;points=[[0,0.5],[1,0.5]];portConstraint=eastwest;whiteSpace=wrap;html=1;" vertex="1" parent="0KZu2uRD0u0P8xtPNETf-0">
          <mxGeometry y="78" width="140" height="26" as="geometry" />
        </mxCell>
        <mxCell id="0KZu2uRD0u0P8xtPNETf-4" value="+ valor: type" style="text;strokeColor=none;fillColor=none;align=left;verticalAlign=top;spacingLeft=4;spacingRight=4;overflow=hidden;rotatable=0;points=[[0,0.5],[1,0.5]];portConstraint=eastwest;whiteSpace=wrap;html=1;" vertex="1" parent="0KZu2uRD0u0P8xtPNETf-0">
          <mxGeometry y="104" width="140" height="26" as="geometry" />
        </mxCell>
        <mxCell id="0KZu2uRD0u0P8xtPNETf-14" value="CFOP" style="swimlane;fontStyle=0;childLayout=stackLayout;horizontal=1;startSize=26;fillColor=none;horizontalStack=0;resizeParent=1;resizeParentMax=0;resizeLast=0;collapsible=1;marginBottom=0;whiteSpace=wrap;html=1;" vertex="1" parent="WIyWlLk6GJQsqaUBKTNV-1">
          <mxGeometry x="50" y="2610" width="140" height="104" as="geometry">
            <mxRectangle x="460" y="190" width="70" height="30" as="alternateBounds" />
          </mxGeometry>
        </mxCell>
        <mxCell id="0KZu2uRD0u0P8xtPNETf-15" value="+ id: int" style="text;strokeColor=none;fillColor=none;align=left;verticalAlign=top;spacingLeft=4;spacingRight=4;overflow=hidden;rotatable=0;points=[[0,0.5],[1,0.5]];portConstraint=eastwest;whiteSpace=wrap;html=1;" vertex="1" parent="0KZu2uRD0u0P8xtPNETf-14">
          <mxGeometry y="26" width="140" height="26" as="geometry" />
        </mxCell>
        <mxCell id="0KZu2uRD0u0P8xtPNETf-16" value="+ descricao: string" style="text;strokeColor=none;fillColor=none;align=left;verticalAlign=top;spacingLeft=4;spacingRight=4;overflow=hidden;rotatable=0;points=[[0,0.5],[1,0.5]];portConstraint=eastwest;whiteSpace=wrap;html=1;" vertex="1" parent="0KZu2uRD0u0P8xtPNETf-14">
          <mxGeometry y="52" width="140" height="26" as="geometry" />
        </mxCell>
        <mxCell id="0KZu2uRD0u0P8xtPNETf-17" value="+ cfop: string" style="text;strokeColor=none;fillColor=none;align=left;verticalAlign=top;spacingLeft=4;spacingRight=4;overflow=hidden;rotatable=0;points=[[0,0.5],[1,0.5]];portConstraint=eastwest;whiteSpace=wrap;html=1;" vertex="1" parent="0KZu2uRD0u0P8xtPNETf-14">
          <mxGeometry y="78" width="140" height="26" as="geometry" />
        </mxCell>
        <mxCell id="0KZu2uRD0u0P8xtPNETf-18" value="MCM" style="swimlane;fontStyle=0;childLayout=stackLayout;horizontal=1;startSize=26;fillColor=none;horizontalStack=0;resizeParent=1;resizeParentMax=0;resizeLast=0;collapsible=1;marginBottom=0;whiteSpace=wrap;html=1;" vertex="1" parent="WIyWlLk6GJQsqaUBKTNV-1">
          <mxGeometry x="240" y="2610" width="140" height="104" as="geometry" />
        </mxCell>
        <mxCell id="0KZu2uRD0u0P8xtPNETf-19" value="+ id: int" style="text;strokeColor=none;fillColor=none;align=left;verticalAlign=top;spacingLeft=4;spacingRight=4;overflow=hidden;rotatable=0;points=[[0,0.5],[1,0.5]];portConstraint=eastwest;whiteSpace=wrap;html=1;" vertex="1" parent="0KZu2uRD0u0P8xtPNETf-18">
          <mxGeometry y="26" width="140" height="26" as="geometry" />
        </mxCell>
        <mxCell id="0KZu2uRD0u0P8xtPNETf-20" value="+ descricao: string" style="text;strokeColor=none;fillColor=none;align=left;verticalAlign=top;spacingLeft=4;spacingRight=4;overflow=hidden;rotatable=0;points=[[0,0.5],[1,0.5]];portConstraint=eastwest;whiteSpace=wrap;html=1;" vertex="1" parent="0KZu2uRD0u0P8xtPNETf-18">
          <mxGeometry y="52" width="140" height="26" as="geometry" />
        </mxCell>
        <mxCell id="0KZu2uRD0u0P8xtPNETf-21" value="+ mcm: string" style="text;strokeColor=none;fillColor=none;align=left;verticalAlign=top;spacingLeft=4;spacingRight=4;overflow=hidden;rotatable=0;points=[[0,0.5],[1,0.5]];portConstraint=eastwest;whiteSpace=wrap;html=1;" vertex="1" parent="0KZu2uRD0u0P8xtPNETf-18">
          <mxGeometry y="78" width="140" height="26" as="geometry" />
        </mxCell>
        <mxCell id="0KZu2uRD0u0P8xtPNETf-22" value="Certificados" style="swimlane;fontStyle=0;childLayout=stackLayout;horizontal=1;startSize=26;fillColor=none;horizontalStack=0;resizeParent=1;resizeParentMax=0;resizeLast=0;collapsible=1;marginBottom=0;whiteSpace=wrap;html=1;" vertex="1" parent="WIyWlLk6GJQsqaUBKTNV-1">
          <mxGeometry x="430" y="2610" width="140" height="104" as="geometry">
            <mxRectangle x="660" y="190" width="100" height="30" as="alternateBounds" />
          </mxGeometry>
        </mxCell>
        <mxCell id="0KZu2uRD0u0P8xtPNETf-23" value="+id: int" style="text;strokeColor=none;fillColor=none;align=left;verticalAlign=top;spacingLeft=4;spacingRight=4;overflow=hidden;rotatable=0;points=[[0,0.5],[1,0.5]];portConstraint=eastwest;whiteSpace=wrap;html=1;" vertex="1" parent="0KZu2uRD0u0P8xtPNETf-22">
          <mxGeometry y="26" width="140" height="26" as="geometry" />
        </mxCell>
        <mxCell id="0KZu2uRD0u0P8xtPNETf-24" value="+ razao_social:string" style="text;strokeColor=none;fillColor=none;align=left;verticalAlign=top;spacingLeft=4;spacingRight=4;overflow=hidden;rotatable=0;points=[[0,0.5],[1,0.5]];portConstraint=eastwest;whiteSpace=wrap;html=1;" vertex="1" parent="0KZu2uRD0u0P8xtPNETf-22">
          <mxGeometry y="52" width="140" height="26" as="geometry" />
        </mxCell>
        <mxCell id="0KZu2uRD0u0P8xtPNETf-25" value="+perf:string" style="text;strokeColor=none;fillColor=none;align=left;verticalAlign=top;spacingLeft=4;spacingRight=4;overflow=hidden;rotatable=0;points=[[0,0.5],[1,0.5]];portConstraint=eastwest;whiteSpace=wrap;html=1;" vertex="1" parent="0KZu2uRD0u0P8xtPNETf-22">
          <mxGeometry y="78" width="140" height="26" as="geometry" />
        </mxCell>
      </root>
    </mxGraphModel>
  </diagram>
  <diagram id="4UTv_w42W8Pb2119eKkp" name="Página-2">
    <mxGraphModel dx="1674" dy="780" grid="1" gridSize="10" guides="1" tooltips="1" connect="1" arrows="1" fold="1" page="1" pageScale="1" pageWidth="827" pageHeight="1169" math="0" shadow="0">
      <root>
        <mxCell id="0" />
        <mxCell id="1" parent="0" />
        <mxCell id="bY1_381dH3mmtsN0rXW9-1" value="Operador" style="shape=umlActor;verticalLabelPosition=bottom;verticalAlign=top;html=1;outlineConnect=0;" parent="1" vertex="1">
          <mxGeometry x="134" y="540" width="30" height="60" as="geometry" />
        </mxCell>
        <mxCell id="bY1_381dH3mmtsN0rXW9-2" value="Caixa" style="shape=umlActor;verticalLabelPosition=bottom;verticalAlign=top;html=1;outlineConnect=0;" parent="1" vertex="1">
          <mxGeometry x="134" y="340" width="30" height="60" as="geometry" />
        </mxCell>
        <mxCell id="bY1_381dH3mmtsN0rXW9-3" value="Master" style="shape=umlActor;verticalLabelPosition=bottom;verticalAlign=top;html=1;outlineConnect=0;" parent="1" vertex="1">
          <mxGeometry x="134" y="120" width="30" height="60" as="geometry" />
        </mxCell>
        <mxCell id="bY1_381dH3mmtsN0rXW9-16" value="Gerenciar usuários" style="ellipse;whiteSpace=wrap;html=1;" parent="1" vertex="1">
          <mxGeometry x="363" y="50" width="150" height="40" as="geometry" />
        </mxCell>
        <mxCell id="bY1_381dH3mmtsN0rXW9-17" value="Configurar o sistema" style="ellipse;whiteSpace=wrap;html=1;" parent="1" vertex="1">
          <mxGeometry x="363" y="100" width="150" height="40" as="geometry" />
        </mxCell>
        <mxCell id="bY1_381dH3mmtsN0rXW9-18" value="Consultar Relatórios Financeiros" style="ellipse;whiteSpace=wrap;html=1;" parent="1" vertex="1">
          <mxGeometry x="363" y="150" width="150" height="40" as="geometry" />
        </mxCell>
        <mxCell id="bY1_381dH3mmtsN0rXW9-19" value="Gerenciar Produtos" style="ellipse;whiteSpace=wrap;html=1;" parent="1" vertex="1">
          <mxGeometry x="363" y="200" width="150" height="40" as="geometry" />
        </mxCell>
        <mxCell id="bY1_381dH3mmtsN0rXW9-26" value="Cliente" style="shape=umlActor;verticalLabelPosition=bottom;verticalAlign=top;html=1;outlineConnect=0;" parent="1" vertex="1">
          <mxGeometry x="664" y="560" width="30" height="60" as="geometry" />
        </mxCell>
        <mxCell id="bY1_381dH3mmtsN0rXW9-27" value="Gerenciar Estoque" style="ellipse;whiteSpace=wrap;html=1;" parent="1" vertex="1">
          <mxGeometry x="363" y="260" width="150" height="40" as="geometry" />
        </mxCell>
        <mxCell id="bY1_381dH3mmtsN0rXW9-28" value="Abrir/Fechar Caixa" style="ellipse;whiteSpace=wrap;html=1;" parent="1" vertex="1">
          <mxGeometry x="363" y="310" width="150" height="40" as="geometry" />
        </mxCell>
        <mxCell id="bY1_381dH3mmtsN0rXW9-29" value="Registrar Venda" style="ellipse;whiteSpace=wrap;html=1;" parent="1" vertex="1">
          <mxGeometry x="363" y="360" width="150" height="40" as="geometry" />
        </mxCell>
        <mxCell id="bY1_381dH3mmtsN0rXW9-30" value="Emitir NFC-e" style="ellipse;whiteSpace=wrap;html=1;" parent="1" vertex="1">
          <mxGeometry x="363" y="410" width="150" height="40" as="geometry" />
        </mxCell>
        <mxCell id="5KYxJyFr04MoRiXRXCex-1" value="" style="curved=1;endArrow=classic;html=1;rounded=0;entryX=0;entryY=0.5;entryDx=0;entryDy=0;exitX=1;exitY=0.3333333333333333;exitDx=0;exitDy=0;exitPerimeter=0;" edge="1" parent="1" source="bY1_381dH3mmtsN0rXW9-3" target="bY1_381dH3mmtsN0rXW9-16">
          <mxGeometry width="50" height="50" relative="1" as="geometry">
            <mxPoint x="204" y="180" as="sourcePoint" />
            <mxPoint x="254" y="130" as="targetPoint" />
            <Array as="points">
              <mxPoint x="214" y="120" />
              <mxPoint x="274" y="100" />
            </Array>
          </mxGeometry>
        </mxCell>
        <mxCell id="5KYxJyFr04MoRiXRXCex-3" value="" style="endArrow=classic;html=1;rounded=0;exitX=1;exitY=0.3333333333333333;exitDx=0;exitDy=0;exitPerimeter=0;entryX=0;entryY=0.5;entryDx=0;entryDy=0;" edge="1" parent="1" source="bY1_381dH3mmtsN0rXW9-3" target="bY1_381dH3mmtsN0rXW9-17">
          <mxGeometry width="50" height="50" relative="1" as="geometry">
            <mxPoint x="204" y="180" as="sourcePoint" />
            <mxPoint x="254" y="130" as="targetPoint" />
          </mxGeometry>
        </mxCell>
        <mxCell id="5KYxJyFr04MoRiXRXCex-4" value="" style="endArrow=classic;html=1;rounded=0;entryX=-0.007;entryY=0.35;entryDx=0;entryDy=0;entryPerimeter=0;" edge="1" parent="1" target="bY1_381dH3mmtsN0rXW9-18">
          <mxGeometry width="50" height="50" relative="1" as="geometry">
            <mxPoint x="164" y="140" as="sourcePoint" />
            <mxPoint x="254" y="140" as="targetPoint" />
          </mxGeometry>
        </mxCell>
        <mxCell id="5KYxJyFr04MoRiXRXCex-5" value="" style="endArrow=classic;html=1;rounded=0;entryX=0;entryY=0.5;entryDx=0;entryDy=0;exitX=1;exitY=0.3333333333333333;exitDx=0;exitDy=0;exitPerimeter=0;" edge="1" parent="1" source="bY1_381dH3mmtsN0rXW9-3" target="bY1_381dH3mmtsN0rXW9-19">
          <mxGeometry width="50" height="50" relative="1" as="geometry">
            <mxPoint x="154" y="140" as="sourcePoint" />
            <mxPoint x="244" y="160" as="targetPoint" />
          </mxGeometry>
        </mxCell>
        <mxCell id="5KYxJyFr04MoRiXRXCex-6" value="" style="endArrow=classic;html=1;rounded=0;exitX=1;exitY=0.3333333333333333;exitDx=0;exitDy=0;exitPerimeter=0;entryX=0;entryY=0.5;entryDx=0;entryDy=0;" edge="1" parent="1" source="bY1_381dH3mmtsN0rXW9-3" target="bY1_381dH3mmtsN0rXW9-27">
          <mxGeometry width="50" height="50" relative="1" as="geometry">
            <mxPoint x="194" y="250" as="sourcePoint" />
            <mxPoint x="244" y="200" as="targetPoint" />
          </mxGeometry>
        </mxCell>
        <mxCell id="5KYxJyFr04MoRiXRXCex-7" value="" style="endArrow=classic;html=1;rounded=0;exitX=1;exitY=0.3333333333333333;exitDx=0;exitDy=0;exitPerimeter=0;entryX=0;entryY=0.5;entryDx=0;entryDy=0;" edge="1" parent="1" source="bY1_381dH3mmtsN0rXW9-2" target="bY1_381dH3mmtsN0rXW9-28">
          <mxGeometry width="50" height="50" relative="1" as="geometry">
            <mxPoint x="224" y="390" as="sourcePoint" />
            <mxPoint x="274" y="340" as="targetPoint" />
          </mxGeometry>
        </mxCell>
        <mxCell id="5KYxJyFr04MoRiXRXCex-8" value="" style="endArrow=classic;html=1;rounded=0;exitX=1;exitY=0.3333333333333333;exitDx=0;exitDy=0;exitPerimeter=0;entryX=0;entryY=0.5;entryDx=0;entryDy=0;" edge="1" parent="1" source="bY1_381dH3mmtsN0rXW9-2" target="bY1_381dH3mmtsN0rXW9-29">
          <mxGeometry width="50" height="50" relative="1" as="geometry">
            <mxPoint x="194" y="440" as="sourcePoint" />
            <mxPoint x="244" y="390" as="targetPoint" />
          </mxGeometry>
        </mxCell>
        <mxCell id="5KYxJyFr04MoRiXRXCex-9" value="" style="endArrow=classic;html=1;rounded=0;exitX=1;exitY=0.3333333333333333;exitDx=0;exitDy=0;exitPerimeter=0;entryX=0;entryY=0.5;entryDx=0;entryDy=0;" edge="1" parent="1" source="bY1_381dH3mmtsN0rXW9-2" target="bY1_381dH3mmtsN0rXW9-30">
          <mxGeometry width="50" height="50" relative="1" as="geometry">
            <mxPoint x="204" y="430" as="sourcePoint" />
            <mxPoint x="254" y="380" as="targetPoint" />
          </mxGeometry>
        </mxCell>
        <mxCell id="5KYxJyFr04MoRiXRXCex-10" value="Cadastrar Cliente" style="ellipse;whiteSpace=wrap;html=1;" vertex="1" parent="1">
          <mxGeometry x="363" y="460" width="150" height="40" as="geometry" />
        </mxCell>
        <mxCell id="5KYxJyFr04MoRiXRXCex-11" value="Gerenciar Pedidos" style="ellipse;whiteSpace=wrap;html=1;" vertex="1" parent="1">
          <mxGeometry x="363" y="510" width="150" height="40" as="geometry" />
        </mxCell>
        <mxCell id="5KYxJyFr04MoRiXRXCex-12" value="Consultar Estoque" style="ellipse;whiteSpace=wrap;html=1;" vertex="1" parent="1">
          <mxGeometry x="363" y="560" width="150" height="40" as="geometry" />
        </mxCell>
        <mxCell id="5KYxJyFr04MoRiXRXCex-13" value="Acompanhar Entregas" style="ellipse;whiteSpace=wrap;html=1;" vertex="1" parent="1">
          <mxGeometry x="363" y="610" width="150" height="40" as="geometry" />
        </mxCell>
        <mxCell id="5KYxJyFr04MoRiXRXCex-15" value="" style="endArrow=classic;html=1;rounded=0;exitX=1;exitY=0.3333333333333333;exitDx=0;exitDy=0;exitPerimeter=0;entryX=0;entryY=0.5;entryDx=0;entryDy=0;" edge="1" parent="1" source="bY1_381dH3mmtsN0rXW9-1" target="5KYxJyFr04MoRiXRXCex-10">
          <mxGeometry width="50" height="50" relative="1" as="geometry">
            <mxPoint x="204" y="600" as="sourcePoint" />
            <mxPoint x="254" y="550" as="targetPoint" />
          </mxGeometry>
        </mxCell>
        <mxCell id="5KYxJyFr04MoRiXRXCex-16" value="" style="endArrow=classic;html=1;rounded=0;exitX=1;exitY=0.3333333333333333;exitDx=0;exitDy=0;exitPerimeter=0;entryX=0;entryY=0.5;entryDx=0;entryDy=0;" edge="1" parent="1" source="bY1_381dH3mmtsN0rXW9-1" target="5KYxJyFr04MoRiXRXCex-11">
          <mxGeometry width="50" height="50" relative="1" as="geometry">
            <mxPoint x="234" y="650" as="sourcePoint" />
            <mxPoint x="284" y="600" as="targetPoint" />
          </mxGeometry>
        </mxCell>
        <mxCell id="5KYxJyFr04MoRiXRXCex-17" value="" style="endArrow=classic;html=1;rounded=0;entryX=0;entryY=0.5;entryDx=0;entryDy=0;" edge="1" parent="1" target="5KYxJyFr04MoRiXRXCex-13">
          <mxGeometry width="50" height="50" relative="1" as="geometry">
            <mxPoint x="164" y="560" as="sourcePoint" />
            <mxPoint x="324" y="630" as="targetPoint" />
          </mxGeometry>
        </mxCell>
        <mxCell id="5KYxJyFr04MoRiXRXCex-18" value="" style="endArrow=classic;html=1;rounded=0;exitX=1;exitY=0.3333333333333333;exitDx=0;exitDy=0;exitPerimeter=0;entryX=0;entryY=0.5;entryDx=0;entryDy=0;" edge="1" parent="1" source="bY1_381dH3mmtsN0rXW9-1" target="5KYxJyFr04MoRiXRXCex-12">
          <mxGeometry width="50" height="50" relative="1" as="geometry">
            <mxPoint x="204" y="650" as="sourcePoint" />
            <mxPoint x="254" y="600" as="targetPoint" />
          </mxGeometry>
        </mxCell>
        <mxCell id="5KYxJyFr04MoRiXRXCex-19" value="" style="endArrow=classic;html=1;rounded=0;exitX=0;exitY=0.3333333333333333;exitDx=0;exitDy=0;exitPerimeter=0;entryX=1;entryY=0.5;entryDx=0;entryDy=0;" edge="1" parent="1" source="bY1_381dH3mmtsN0rXW9-26" target="5KYxJyFr04MoRiXRXCex-13">
          <mxGeometry width="50" height="50" relative="1" as="geometry">
            <mxPoint x="564" y="400" as="sourcePoint" />
            <mxPoint x="614" y="350" as="targetPoint" />
          </mxGeometry>
        </mxCell>
        <mxCell id="5KYxJyFr04MoRiXRXCex-20" value="Atualizar dados cadastrais" style="ellipse;whiteSpace=wrap;html=1;" vertex="1" parent="1">
          <mxGeometry x="363" y="660" width="150" height="40" as="geometry" />
        </mxCell>
        <mxCell id="5KYxJyFr04MoRiXRXCex-22" value="" style="endArrow=classic;html=1;rounded=0;exitX=1;exitY=0.3333333333333333;exitDx=0;exitDy=0;exitPerimeter=0;entryX=0;entryY=0.5;entryDx=0;entryDy=0;" edge="1" parent="1" source="bY1_381dH3mmtsN0rXW9-1" target="5KYxJyFr04MoRiXRXCex-20">
          <mxGeometry width="50" height="50" relative="1" as="geometry">
            <mxPoint x="214" y="680" as="sourcePoint" />
            <mxPoint x="264" y="630" as="targetPoint" />
          </mxGeometry>
        </mxCell>
        <mxCell id="5KYxJyFr04MoRiXRXCex-23" value="" style="endArrow=classic;html=1;rounded=0;exitX=0;exitY=0.3333333333333333;exitDx=0;exitDy=0;exitPerimeter=0;entryX=1;entryY=0.5;entryDx=0;entryDy=0;" edge="1" parent="1" source="bY1_381dH3mmtsN0rXW9-26" target="5KYxJyFr04MoRiXRXCex-20">
          <mxGeometry width="50" height="50" relative="1" as="geometry">
            <mxPoint x="594" y="660" as="sourcePoint" />
            <mxPoint x="644" y="610" as="targetPoint" />
          </mxGeometry>
        </mxCell>
        <mxCell id="5KYxJyFr04MoRiXRXCex-24" value="" style="endArrow=classic;html=1;rounded=0;exitX=0;exitY=0.3333333333333333;exitDx=0;exitDy=0;exitPerimeter=0;entryX=1;entryY=0.5;entryDx=0;entryDy=0;" edge="1" parent="1" source="bY1_381dH3mmtsN0rXW9-26" target="5KYxJyFr04MoRiXRXCex-11">
          <mxGeometry width="50" height="50" relative="1" as="geometry">
            <mxPoint x="584" y="530" as="sourcePoint" />
            <mxPoint x="634" y="480" as="targetPoint" />
          </mxGeometry>
        </mxCell>
      </root>
    </mxGraphModel>
  </diagram>
</mxfile>
